<svg xmlns="http://www.w3.org/2000/svg" width="96" height="96" fill="none" viewBox="0 0 257 256">
<path fill-rule="evenodd" clip-rule="evenodd" d="M18.8719 194.93C20.9769 198.355 23.2387 201.674 25.6471 204.875L41.3708 195.797C38.897 192.641 36.592 189.345 34.4693 185.925L18.8719 194.93ZM224.936 75.9595C226.831 79.4833 228.54 83.1222 230.05 86.8632L245.775 77.7846C244.194 74.0815 242.443 70.4682 240.533 66.9543L224.936 75.9595ZM234.312 56.6897L218.68 65.7149C216.387 62.3832 213.915 59.1841 211.279 56.1316L227.109 46.9917C229.657 50.1055 232.062 53.3415 234.312 56.6897ZM28.7063 175.396L13.074 184.421C11.3029 180.821 9.69602 177.124 8.26315 173.343L24.096 164.202C25.4311 168.034 26.9723 171.77 28.7063 175.396ZM1.56467 107.928C2.41911 102.503 3.61437 97.1906 5.12784 92.0143L30.2446 77.5132C27.2607 83.2791 24.7719 89.3427 22.8346 95.6477L1.56467 107.928ZM46.2176 54.4348C61.5136 37.4412 82.0303 25.2401 105.242 20.3571L139.603 0.518788C135.781 0.175408 131.911 0 128 0C76.4741 0 32.0591 30.445 11.7626 74.3274L46.2176 54.4348ZM152.558 20.7517C146.268 19.3172 139.772 18.4219 133.122 18.1171L158.267 3.59946C163.6 4.89255 168.803 6.51972 173.852 8.45756L152.558 20.7517ZM107.832 254.42C114.402 255.46 121.138 256 128 256C182.58 256 229.181 221.839 247.589 173.732L218.522 190.513C200.253 216.918 170.729 234.941 136.885 237.646L107.832 254.42ZM229.585 170.269L252.721 156.912C253.877 151.905 254.739 146.786 255.289 141.574L235.092 153.234C233.713 159.108 231.864 164.8 229.585 170.269ZM113.837 237.097L90.6715 250.471C85.6737 248.95 80.8055 247.131 76.0876 245.035L96.3025 233.364C101.969 235.067 107.827 236.324 113.837 237.097ZM4.47535 161.673C3.38097 157.649 2.47797 153.546 1.77673 149.375L18.6102 139.656C19.0627 143.952 19.7625 148.174 20.695 152.309L4.47535 161.673ZM202.683 47.2378C199.548 44.3376 196.245 41.6176 192.788 39.0944L209.607 29.3838C212.841 32.0629 215.941 34.898 218.895 37.8776L202.683 47.2378ZM181.404 31.8105L199.137 21.5721C195.335 19.0256 191.389 16.6774 187.313 14.5424L168.2 25.5772C172.758 27.3674 177.167 29.453 181.404 31.8105ZM0.270447 136.388L18.0154 126.143C18.0971 121.207 18.5038 116.351 19.2152 111.594L0.110865 122.624C0.0371971 124.407 0 126.199 0 128C0 130.818 0.0910766 133.615 0.270447 136.388ZM52.1704 231.131C55.7681 233.781 59.5095 236.247 63.3807 238.515L81.8232 227.868C77.5471 225.887 73.4197 223.64 69.4622 221.148L52.1704 231.131ZM237.924 123.886C237.975 125.251 238 126.623 238 128C238 131.356 237.85 134.676 237.556 137.955L255.998 127.308C255.974 122.777 255.715 118.302 255.232 113.894L237.924 123.886ZM253.193 101.214L236.657 110.761C235.998 106.574 235.103 102.464 233.985 98.4477L250.012 89.1945C251.26 93.1223 252.324 97.1323 253.193 101.214ZM58.7539 213.474L42.2295 223.014C39.1527 220.235 36.2115 217.308 33.4171 214.246L49.4394 204.995C52.3791 207.994 55.4891 210.826 58.7539 213.474Z" fill="#B3BDC7"/>
  <circle cx="128" cy="128" r="100" fill="url(#cake_logo_gradeint)"/>
  <g transform="translate(30, 30) scale(2.0)">
    <path fill="#633001" fill-rule="evenodd" d="M47.8581 79.8749C38.5164 79.8678 30.9915 77.6262 25.7338 73.5999C20.413 69.5252 17.5903 63.7429 17.5903 57.2001C17.5903 50.8957 20.4068 46.3497 23.5936 43.2769C26.0911 40.8688 28.8471 39.3265 30.7661 38.4394C30.3322 37.1076 29.7907 35.364 29.3063 33.5632C28.6582 31.1534 28.0223 28.3261 28.0223 26.2543C28.0223 23.802 28.557 21.3392 29.9986 19.4255C31.5217 17.4037 33.8146 16.3206 36.5731 16.3206C38.7289 16.3206 40.5593 17.1202 41.9922 18.4998C43.3619 19.8184 44.2735 21.5697 44.9029 23.3952C46.0089 26.6029 46.4396 30.633 46.5604 34.6548H49.2026C49.3234 30.633 49.754 26.6029 50.8601 23.3952C51.4895 21.5697 52.4011 19.8184 53.7708 18.4998C55.2037 17.1202 57.034 16.3206 59.1899 16.3206C61.9484 16.3206 64.2413 17.4037 65.7644 19.4255C67.206 21.3392 67.7407 23.802 67.7407 26.2543C67.7407 28.3261 67.1048 31.1534 66.4566 33.5632C65.9722 35.364 65.4308 37.1076 64.9968 38.4394C66.9159 39.3265 69.6719 40.8688 72.1693 43.2769C75.3562 46.3497 78.1726 50.8957 78.1726 57.2001C78.1726 63.7429 75.35 69.5252 70.0292 73.5999C64.7715 77.6262 57.2466 79.8678 47.9049 79.8749H47.8581Z" clip-rule="evenodd"/>
    <path fill="#D1884F" d="M36.573 18.6528C32.5327 18.6528 30.6729 21.6977 30.6729 25.9088C30.6729 29.2559 32.8339 35.9594 33.7205 38.569C33.9199 39.1559 33.6065 39.799 33.0351 40.0266C29.797 41.3164 20.241 46.039 20.241 56.8546C20.241 68.2477 29.952 76.838 47.86 76.8516C47.8671 76.8516 47.8742 76.8516 47.8814 76.8516C47.8885 76.8516 47.8956 76.8516 47.9028 76.8516C65.8107 76.838 75.5218 68.2477 75.5218 56.8546C75.5218 46.039 65.9658 41.3164 62.7277 40.0266C62.1562 39.799 61.8429 39.1559 62.0423 38.569C62.9289 35.9594 65.0898 29.2559 65.0898 25.9088C65.0898 21.6977 63.23 18.6528 59.1898 18.6528C53.374 18.6528 51.9243 26.9751 51.8209 35.907C51.814 36.5033 51.3368 36.9871 50.7465 36.9871H45.0163C44.4259 36.9871 43.9488 36.5033 43.9419 35.907C43.8385 26.9751 42.3887 18.6528 36.573 18.6528Z"/>
    <path fill="#FEDC90" d="M47.9028 73.202C34.7449 73.202 20.2637 66.0868 20.241 56.8762C20.241 56.8906 20.241 56.905 20.241 56.9193C20.241 68.3216 29.9675 76.9164 47.9028 76.9164C65.838 76.9164 75.5645 68.3216 75.5645 56.9193C75.5645 56.905 75.5645 56.8906 75.5645 56.8762C75.5418 66.0868 61.0607 73.202 47.9028 73.202Z"/>
    <path fill="#633001" d="M40.5919 54.0472C40.5919 57.1569 39.1371 58.7765 37.3426 58.7765C35.548 58.7765 34.0933 57.1569 34.0933 54.0472C34.0933 50.9375 35.548 49.3179 37.3426 49.3179C39.1371 49.3179 40.5919 50.9375 40.5919 54.0472Z"/>
    <path fill="#633001" d="M61.7122 54.0472C61.7122 57.1569 60.2575 58.7765 58.4629 58.7765C56.6684 58.7765 55.2136 57.1569 55.2136 54.0472C55.2136 50.9375 56.6684 49.3179 58.4629 49.3179C60.2575 49.3179 61.7122 50.9375 61.7122 54.0472Z"/>
  </g>
  <defs>
    <linearGradient id="cake_logo_gradeint" x1="48" x2="48" y1="0" y2="96" gradientUnits="userSpaceOnUse">
      <stop stop-color="#53DEE9"/>
      <stop offset="1" stop-color="#1FC7D4"/>
    </linearGradient>
  </defs>
</svg>
