<svg viewBox="0 0 197 167" fill="none" xmlns="http://www.w3.org/2000/svg">
<g clip-path="url(#clip0_879_977)">
<path d="M180.122 10.5303H56.4023C47.5658 10.5303 40.4023 17.6937 40.4023 26.5303V150.25C40.4023 159.087 47.5658 166.25 56.4023 166.25H180.122C188.959 166.25 196.122 159.087 196.122 150.25V26.5303C196.122 17.6937 188.959 10.5303 180.122 10.5303Z" fill="#3262D1" stroke="#2950AB" stroke-miterlimit="10"/>
<path d="M37.0595 146.72C35.3407 146.718 33.6262 146.551 31.9395 146.22C28.5818 145.576 25.3392 144.433 22.3195 142.83C5.6495 133.83 2.8995 113.06 3.8995 102.17C4.10031 99.8339 5.17231 97.6589 6.90261 96.0768C8.63291 94.4947 10.895 93.6213 13.2395 93.6299C13.5293 93.6149 13.8197 93.6149 14.1095 93.6299C16.5908 93.8607 18.8793 95.0663 20.4728 96.9823C22.0663 98.8982 22.8347 101.368 22.6095 103.85C22.6095 104.05 20.8495 124.85 35.6095 127.74C36.0675 127.829 36.533 127.872 36.9995 127.87C47.4295 127.87 62.8095 107.23 69.9195 93.2899C70.699 91.7369 71.8963 90.4322 73.3767 89.5224C74.8571 88.6126 76.5619 88.1338 78.2995 88.1399C79.7757 88.1293 81.2329 88.4722 82.5495 89.1399C84.7674 90.2718 86.447 92.2359 87.2209 94.6026C87.9948 96.9693 87.8002 99.5462 86.6795 101.77C82.3981 109.882 77.3768 117.581 71.6795 124.77C60.0295 139.3 48.3795 146.67 37.0495 146.67L37.0595 146.72Z" fill="#1C1D21"/>
<path d="M78.2691 88.4793C79.6994 88.4787 81.1089 88.8217 82.3791 89.4793C84.5291 90.573 86.1577 92.4747 86.9076 94.7674C87.6574 97.0601 87.4674 99.5566 86.3791 101.709C82.1194 109.794 77.125 117.47 71.4591 124.639C59.8691 139.099 48.2891 146.429 37.0591 146.429C35.3569 146.427 33.6589 146.259 31.9891 145.929C28.6636 145.292 25.4516 144.163 22.4591 142.579C5.93908 133.679 3.19908 112.999 4.19908 102.199C4.38284 99.9411 5.41159 97.8352 7.07991 96.3022C8.74824 94.7692 10.9334 93.9219 13.1991 93.9293C13.4822 93.9144 13.7659 93.9144 14.0491 93.9293C16.4499 94.1525 18.6641 95.3193 20.2053 97.1737C21.7465 99.028 22.4888 101.418 22.2691 103.819C22.2691 104.029 20.4891 125.069 35.4891 128.029C35.9635 128.122 36.4457 128.169 36.9291 128.169C47.4791 128.169 62.9291 107.439 70.1091 93.4193C70.8649 91.9142 72.0248 90.6492 73.459 89.7661C74.8931 88.883 76.5448 88.4167 78.2291 88.4193L78.2691 88.4793ZM78.2291 87.8193C76.4373 87.8182 74.6803 88.3138 73.1532 89.2512C71.6262 90.1886 70.389 91.531 69.5791 93.1293C61.9991 108.119 46.8391 127.609 36.9991 127.609C36.5525 127.612 36.1068 127.568 35.6691 127.479C21.2091 124.619 22.9191 104.119 22.9391 103.909C23.1726 101.349 22.38 98.8006 20.7355 96.8242C19.0911 94.8479 16.7293 93.6052 14.1691 93.3693C13.8691 93.3693 13.5691 93.3693 13.2691 93.3693C10.8539 93.3741 8.52727 94.2797 6.74441 95.9091C4.96155 97.5384 3.85068 99.7743 3.62908 102.179C2.62908 113.439 5.62908 134.179 22.2091 143.179C25.2518 144.801 28.522 145.954 31.9091 146.599C33.615 146.938 35.3499 147.109 37.0891 147.109C48.5191 147.109 60.2191 139.729 71.9591 125.109C77.6596 117.923 82.6811 110.223 86.9591 102.109C87.7093 100.631 88.0681 98.9856 88.0015 97.3294C87.9349 95.6732 87.445 94.0617 86.5785 92.6487C85.712 91.2357 84.4979 90.0682 83.052 89.2578C81.6061 88.4474 79.9766 88.021 78.3191 88.0193L78.2291 87.8193Z" fill="#111318"/>
<path d="M76.8991 107.78C83.8634 107.78 89.5091 102.134 89.5091 95.1696C89.5091 88.2053 83.8634 82.5596 76.8991 82.5596C69.9348 82.5596 64.2891 88.2053 64.2891 95.1696C64.2891 102.134 69.9348 107.78 76.8991 107.78Z" fill="#EBC05B" stroke="#6B582A" stroke-width="0.6" stroke-miterlimit="10"/>
<path d="M66.4506 93C66.8943 95.1504 67.9911 97.1113 69.5913 98.6148C71.1914 100.118 73.2168 101.091 75.3906 101.4C75.8944 101.468 76.4023 101.501 76.9106 101.5C79.3588 101.489 81.7292 100.639 83.627 99.0923C85.5248 97.5457 86.8355 95.3955 87.3406 93C87.5964 94.2034 87.637 95.4425 87.4606 96.66C87.0876 99.196 85.8184 101.514 83.8829 103.195C81.9474 104.875 79.4738 105.807 76.9106 105.82C76.402 105.818 75.8942 105.781 75.3906 105.71C72.599 105.302 70.0834 103.803 68.396 101.542C66.7087 99.2806 65.9874 96.4423 66.3906 93.65C66.3706 93.46 66.4006 93.25 66.4506 93Z" fill="#C49839"/>
<path d="M165.566 126.903L163.919 139.643L162.172 153.15L161.821 155.894C161.741 156.519 161.67 157.135 161.61 157.76C161.496 158.93 161.426 160.1 161.399 161.27C161.399 162.279 161.309 163.288 161.238 164.297C161.207 165.202 161.275 166.109 161.439 167H81.0306C80.89 165.729 80.7795 164.448 80.6992 163.147C80.6992 162.521 80.639 161.906 80.6189 161.291C80.569 159.492 80.4282 157.698 80.1972 155.914L79.0424 146.967L78.6107 143.668L76.4519 126.923C76.1523 124.581 76.0014 122.223 76 119.862C76 118.984 76 118.097 76.0703 117.209C76.212 114.121 76.6321 111.052 77.3254 108.039C77.466 107.367 77.6267 106.694 77.8074 106.022C78.2191 104.489 78.691 102.996 79.2533 101.452C80.6629 97.6155 82.5237 93.9616 84.796 90.5681L84.8964 90.3966C85.1072 90.0839 85.3281 89.7611 85.5591 89.3879C85.9808 88.7827 86.4327 88.1774 86.8845 87.5823C88.4822 85.5116 90.2452 83.5751 92.156 81.7921C92.2145 81.7264 92.2783 81.6656 92.3468 81.6105C92.8388 81.1465 93.3509 80.7027 93.8429 80.2891L93.9634 80.1781C94.9675 79.3409 95.9716 78.5642 96.9757 77.8076C97.3573 77.5353 97.7489 77.2629 98.1506 77.0006C98.5522 76.7384 98.743 76.6072 99.0342 76.4357C99.8575 75.9112 100.691 75.427 101.544 74.963C101.826 74.8117 102.107 74.6604 102.398 74.5191C107.219 72.0383 112.481 70.5401 117.881 70.111C118.885 70.0404 119.889 70 120.964 70C126.862 69.9979 132.689 71.2961 138.034 73.8029C138.405 73.9643 138.767 74.1459 139.138 74.3174C140.012 74.7612 140.855 75.2253 141.709 75.7195C142.996 76.4738 144.242 77.2954 145.444 78.1808C145.866 78.4835 146.277 78.7861 146.689 79.119C147.101 79.4519 147.693 79.9461 148.235 80.39C148.307 80.4412 148.374 80.4986 148.436 80.5615C151.167 82.9215 153.622 85.5848 155.756 88.5002C156.037 88.8734 156.308 89.2467 156.559 89.63C157.182 90.5076 157.764 91.4054 158.317 92.3233C158.668 92.8983 159.009 93.4834 159.321 94.0684C159.632 94.6535 159.803 94.9359 160.034 95.3798C160.97 97.1792 161.801 99.0316 162.524 100.928C163.125 102.507 163.645 104.116 164.08 105.75C164.271 106.446 164.442 107.142 164.602 107.838C166.05 114.084 166.376 120.541 165.566 126.903Z" fill="#EBC05B" stroke="#6B582A" stroke-width="0.6" stroke-miterlimit="10"/>
<path d="M119.002 101.08C117.482 101.08 116.002 101.02 114.452 100.89C96.2015 99.4095 86.5715 91.3895 81.3915 87.0795C80.8615 86.6295 80.3915 86.2595 79.9915 85.9195C78.0435 84.3614 76.7943 82.0932 76.5186 79.614C76.2429 77.1348 76.9634 74.6476 78.5215 72.6995C80.0797 70.7515 82.3479 69.5023 84.8271 69.2266C87.3063 68.9509 89.7935 69.6714 91.7415 71.2295L93.4515 72.6295C97.7715 76.2295 103.692 81.1595 116.012 82.1595C117.012 82.2395 118.012 82.2795 119.012 82.2795C133.382 82.2795 145.682 73.9895 149.102 71.4495C150.716 70.2456 152.677 69.5966 154.692 69.5995C156.683 69.5829 158.628 70.1989 160.246 71.3588C161.864 72.5187 163.073 74.1626 163.697 76.0535C164.321 77.9443 164.328 79.9845 163.718 81.8799C163.108 83.7752 161.911 85.4279 160.302 86.5995C154.392 90.9195 138.582 101.08 119.002 101.08Z" fill="#1C1D21"/>
<path d="M85.8798 69.4799C87.9432 69.4769 89.9449 70.183 91.5498 71.4799L93.2598 72.8799C97.6098 76.5099 103.57 81.4699 115.99 82.4799C116.99 82.5599 117.99 82.5999 118.99 82.5999C133.46 82.5999 145.82 74.2699 149.26 71.7099C150.822 70.543 152.72 69.9148 154.67 69.9199C156.092 69.9199 157.494 70.2505 158.766 70.8857C160.038 71.521 161.145 72.4433 162 73.5799C163.435 75.5195 164.042 77.9492 163.687 80.3357C163.333 82.7223 162.046 84.8708 160.11 86.3099C154.24 90.6599 138.5 100.78 119.04 100.78C117.53 100.78 116.04 100.72 114.52 100.6C96.3598 99.1199 86.7698 91.1299 81.6198 86.8499L81.5498 86.7899C81.0798 86.3899 80.6298 86.0199 80.2098 85.6899C78.736 84.5126 77.6645 82.9065 77.1435 81.0936C76.6224 79.2807 76.6776 77.3508 77.3014 75.5706C77.9251 73.7905 79.0866 72.2482 80.6253 71.157C82.1639 70.0659 84.0035 69.4798 85.8898 69.4799H85.8798ZM85.8898 68.8799C83.8835 68.8907 81.93 69.5234 80.2983 70.6908C78.6665 71.8581 77.4369 73.5027 76.7789 75.398C76.1208 77.2933 76.0666 79.3461 76.6237 81.2734C77.1809 83.2008 78.322 84.908 79.8898 86.1599C80.3298 86.5099 80.7898 86.8899 81.2898 87.3099C86.4898 91.6399 96.1698 99.6999 114.52 101.19C116.06 101.32 117.59 101.38 119.09 101.38C138.61 101.38 154.36 91.3799 160.52 86.7899C162.586 85.249 163.955 82.9505 164.326 80.4C164.698 77.8495 164.041 75.2559 162.5 73.1899C160.959 71.1239 158.66 69.7546 156.11 69.3832C153.559 69.0119 150.966 69.669 148.9 71.2099C145.35 73.8499 133.22 81.9999 119 81.9999C118 81.9999 117 81.9999 116.05 81.8799C103.81 80.8799 97.9398 75.9899 93.6498 72.4199C93.0398 71.9199 92.4698 71.4199 91.9298 71.0099C90.2253 69.6494 88.1106 68.9058 85.9298 68.8999L85.8898 68.8799Z" fill="#111318"/>
<path d="M7.71937 64.4898V76.6298C7.71676 76.7554 7.66503 76.8749 7.5753 76.9628C7.48556 77.0507 7.36497 77.0999 7.23938 77.0998H7.15938C7.03378 77.0999 6.91319 77.0507 6.82345 76.9628C6.73372 76.8749 6.68199 76.7554 6.67937 76.6298V70.1298C6.67937 69.557 6.4518 69.0076 6.04673 68.6025C5.64165 68.1974 5.09224 67.9698 4.51938 67.9698C3.94651 67.9698 3.3971 68.1974 2.99202 68.6025C2.58695 69.0076 2.35938 69.557 2.35938 70.1298V96.1898C2.99989 95.8165 3.728 95.6198 4.46937 95.6198H23.7494C24.1702 95.6162 24.5889 95.6804 24.9894 95.8098C25.6508 95.136 26.2407 94.3954 26.7494 93.5998C27.7652 91.9531 28.467 90.1324 28.8194 88.2298C29.13 86.5247 29.2673 84.7926 29.2294 83.0598C29.2294 81.3998 29.0594 79.7898 28.9094 78.2298C28.8226 77.7722 28.5788 77.3592 28.2201 77.0621C27.8614 76.765 27.4102 76.6024 26.9444 76.6024C26.4786 76.6024 26.0274 76.765 25.6686 77.0621C25.3099 77.3592 25.0661 77.7722 24.9794 78.2298C24.8294 79.7698 24.6694 81.2298 24.4094 82.6898C24.1792 84.0592 23.8037 85.4001 23.2894 86.6898C23.2602 86.7502 23.2117 86.7991 23.1515 86.8287C23.0914 86.8583 23.023 86.8668 22.9574 86.853C22.8918 86.8392 22.8327 86.8038 22.7895 86.7525C22.7464 86.7012 22.7217 86.6369 22.7194 86.5698V64.4998C22.7194 63.927 22.4918 63.3776 22.0867 62.9725C21.6816 62.5674 21.1322 62.3398 20.5594 62.3398C19.9865 62.3398 19.4371 62.5674 19.032 62.9725C18.6269 63.3776 18.3994 63.927 18.3994 64.4998V76.6098C18.4007 76.6759 18.3887 76.7415 18.3641 76.8028C18.3394 76.8641 18.3027 76.9197 18.256 76.9664C18.2093 77.0131 18.1536 77.0499 18.0923 77.0746C18.031 77.0992 17.9654 77.1112 17.8994 77.1098C17.7668 77.1098 17.6396 77.0572 17.5458 76.9634C17.4521 76.8696 17.3994 76.7425 17.3994 76.6098V61.9998C17.3994 61.427 17.1718 60.8776 16.7667 60.4725C16.3616 60.0674 15.8122 59.8398 15.2394 59.8398C14.6665 59.8398 14.1171 60.0674 13.712 60.4725C13.3069 60.8776 13.0794 61.427 13.0794 61.9998V76.5998C13.0794 76.7378 13.0246 76.87 12.9271 76.9675C12.8296 77.0651 12.6973 77.1198 12.5594 77.1198C12.4878 77.1254 12.4159 77.116 12.3481 77.0924C12.2803 77.0687 12.2181 77.0313 12.1655 76.9824C12.1129 76.9336 12.071 76.8744 12.0424 76.8085C12.0138 76.7427 11.9992 76.6716 11.9994 76.5998V64.4898C11.9994 63.917 11.7718 63.3676 11.3667 62.9625C10.9616 62.5574 10.4122 62.3298 9.83938 62.3298C9.26651 62.3298 8.7171 62.5574 8.31203 62.9625C7.90695 63.3676 7.67937 63.917 7.67937 64.4898H7.71937Z" fill="#EBC05B" stroke="#6B582A" stroke-width="0.6" stroke-miterlimit="10"/>
<path d="M2.3508 96.2599C1.72573 96.63 1.20793 97.1567 0.848444 97.788C0.488961 98.4193 0.30021 99.1334 0.300802 99.8599C0.298805 100.494 0.4425 101.12 0.720802 101.69C1.06127 102.403 1.59715 103.006 2.26623 103.427C2.93531 103.848 3.71015 104.071 4.5008 104.07H23.7408C24.7406 104.065 25.7059 103.704 26.4631 103.051C27.2203 102.398 27.7198 101.496 27.8716 100.508C28.0235 99.5195 27.8178 98.5095 27.2915 97.6594C26.7653 96.8092 25.953 96.1747 25.0008 95.8699C24.6003 95.7404 24.1817 95.6762 23.7608 95.6799H4.5108C3.75142 95.6729 3.00456 95.8735 2.3508 96.2599Z" fill="#EBC05B" stroke="#6B582A" stroke-width="0.6" stroke-miterlimit="10"/>
<path opacity="0.5" d="M119.471 90.9598C144.506 90.9598 164.801 70.6649 164.801 45.6298C164.801 20.5947 144.506 0.299805 119.471 0.299805C94.4356 0.299805 74.1406 20.5947 74.1406 45.6298C74.1406 70.6649 94.4356 90.9598 119.471 90.9598Z" fill="#5BBDEF"/>
<path d="M119.471 90.9598C144.506 90.9598 164.801 70.6649 164.801 45.6298C164.801 20.5947 144.506 0.299805 119.471 0.299805C94.4356 0.299805 74.1406 20.5947 74.1406 45.6298C74.1406 70.6649 94.4356 90.9598 119.471 90.9598Z" stroke="#FAFAFA" stroke-width="0.6" stroke-miterlimit="10"/>
<path d="M115.941 83.8197C134.205 83.8197 149.011 69.0137 149.011 50.7497C149.011 32.4856 134.205 17.6797 115.941 17.6797C97.677 17.6797 82.8711 32.4856 82.8711 50.7497C82.8711 69.0137 97.677 83.8197 115.941 83.8197Z" fill="#C49839" stroke="#6B582A" stroke-width="0.6" stroke-miterlimit="10"/>
<path d="M111.872 77.1301C126.441 77.1301 138.252 65.3194 138.252 50.7501C138.252 36.1808 126.441 24.3701 111.872 24.3701C97.3029 24.3701 85.4922 36.1808 85.4922 50.7501C85.4922 65.3194 97.3029 77.1301 111.872 77.1301Z" fill="#EBC05B" stroke="#6B582A" stroke-width="0.6" stroke-miterlimit="10"/>
<path d="M82.6289 71.6397C88.0913 79.3408 95.829 85.137 104.755 88.2142C113.681 91.2914 123.347 91.4949 132.395 88.7961C141.442 86.0972 149.417 80.6317 155.199 73.1673C160.98 65.7029 164.278 56.6148 164.629 47.1797C159.469 50.6797 151.969 63.4597 142.109 70.9097C137.699 74.2397 134.809 76.5097 129.459 76.3997C117.829 76.1597 121.549 67.3997 108.689 67.3997C96.6189 67.3997 101.229 74.0497 91.6089 74.0497C88.4667 73.9705 85.3885 73.1444 82.6289 71.6397Z" fill="#EBC05B" stroke="#6B582A" stroke-width="0.6" stroke-miterlimit="10"/>
<path d="M92.5791 79.3399C94.6801 81.0212 96.937 82.4979 99.3191 83.7499C104.531 86.4908 110.248 88.1388 116.119 88.5928C121.99 89.0468 127.893 88.2973 133.464 86.3902C139.036 84.4832 144.159 81.4586 148.521 77.502C152.882 73.5453 156.39 68.7398 158.829 63.3799C157.84 65.0988 156.741 66.7522 155.539 68.3299C148.392 77.812 137.908 84.2235 126.21 86.2658C114.513 88.3082 102.477 85.8289 92.5391 79.3299L92.5791 79.3399Z" fill="#C49839"/>
<path d="M108.891 84.2202C107.554 84.2222 106.246 83.8274 105.133 83.0858C104.02 82.3442 103.152 81.2891 102.639 80.0541C102.125 78.819 101.99 77.4595 102.25 76.1475C102.509 74.8356 103.153 73.6301 104.098 72.6837C105.043 71.7373 106.247 71.0925 107.559 70.8308C108.87 70.5692 110.23 70.7025 111.466 71.2138C112.702 71.7252 113.758 72.5916 114.501 73.7035C115.244 74.8154 115.641 76.1228 115.641 77.4602C115.641 79.2513 114.93 80.9692 113.665 82.2367C112.399 83.5042 110.682 84.2175 108.891 84.2202Z" fill="#1C1D21"/>
<path d="M108.89 70.9997C110.167 70.9997 111.416 71.3785 112.479 72.0884C113.541 72.7982 114.369 73.8071 114.858 74.9875C115.347 76.1679 115.475 77.4668 115.225 78.72C114.976 79.9731 114.361 81.1241 113.457 82.0276C112.554 82.931 111.403 83.5463 110.15 83.7955C108.897 84.0448 107.598 83.9169 106.417 83.4279C105.237 82.939 104.228 82.111 103.518 81.0486C102.808 79.9863 102.43 78.7373 102.43 77.4597C102.43 75.7464 103.11 74.1032 104.322 72.8918C105.533 71.6803 107.176 70.9997 108.89 70.9997ZM108.89 70.3997C107.491 70.3878 106.12 70.7917 104.951 71.5602C103.782 72.3287 102.868 73.4271 102.324 74.7161C101.781 76.005 101.632 77.4264 101.898 78.7999C102.164 80.1733 102.831 81.4369 103.816 82.4302C104.801 83.4236 106.059 84.102 107.43 84.3793C108.801 84.6566 110.224 84.5203 111.517 83.9878C112.811 83.4553 113.917 82.5504 114.695 81.3882C115.474 80.2259 115.889 78.8585 115.89 77.4597C115.89 75.5976 115.154 73.8109 113.843 72.4886C112.532 71.1663 110.752 70.4155 108.89 70.3997Z" fill="#111318"/>
<path d="M150.39 24.8396C150.77 24.8367 151.141 24.7257 151.46 24.5196C151.878 24.2261 152.167 23.784 152.269 23.2839C152.372 22.7838 152.279 22.2635 152.01 21.8296C150.609 19.7076 149.041 17.7011 147.32 15.8296C145.195 13.8264 142.819 12.1086 140.25 10.7196C139.795 10.4783 139.263 10.4275 138.771 10.5785C138.278 10.7295 137.866 11.0698 137.625 11.5246C137.384 11.9795 137.333 12.5116 137.484 13.0039C137.635 13.4961 137.975 13.9083 138.43 14.1496C140.652 15.353 142.712 16.835 144.56 18.5596C146.104 20.2597 147.512 22.0786 148.77 23.9996C148.954 24.2581 149.197 24.4691 149.479 24.6152C149.76 24.7612 150.073 24.8382 150.39 24.8396Z" fill="#FAFAFA"/>
<path d="M153.042 29.7296C154.125 29.7296 155.002 28.852 155.002 27.7696C155.002 26.6871 154.125 25.8096 153.042 25.8096C151.96 25.8096 151.082 26.6871 151.082 27.7696C151.082 28.852 151.96 29.7296 153.042 29.7296Z" fill="#FAFAFA"/>
<path d="M158.109 167C159.672 162.615 160.919 158.125 161.841 153.563C162.753 149.084 163.353 144.547 163.637 139.986C164.303 128.723 163.006 117.43 159.803 106.61C159.491 105.543 159.158 104.476 158.795 103.42C157.967 100.923 157.029 98.4474 156 96.052L174.553 88C175.905 91.1604 177.136 94.4315 178.205 97.7127C185.533 120.15 185.92 144.269 179.315 166.93L158.109 167Z" fill="#1C1D21"/>
<path d="M174.671 87.9296C175.961 90.9296 177.131 94.1096 178.161 97.2796C185.389 119.439 185.793 143.258 179.321 165.65H158.941C160.433 161.405 161.625 157.061 162.511 152.65C165.643 137.131 164.956 121.084 160.511 105.89C160.191 104.79 159.861 103.72 159.511 102.71C158.721 100.31 157.831 97.9396 156.861 95.6396L159.411 94.5296L174.691 87.9196L174.671 87.9296ZM175.011 87.1296L159.151 93.9996L156.491 95.1496L156.051 95.3396C157.117 97.8263 158.077 100.353 158.931 102.92C159.281 103.92 159.611 105.02 159.931 106.07C163.07 116.803 164.335 127.997 163.671 139.16C163.411 143.659 162.829 148.133 161.931 152.55C160.997 157.208 159.716 161.791 158.101 166.26H179.781C186.38 143.626 186.031 119.533 178.781 97.0996C177.687 93.7663 176.441 90.4329 175.041 87.0996L175.011 87.1296Z" fill="#111318"/>
<path d="M166.27 107.78C173.234 107.78 178.88 102.134 178.88 95.1696C178.88 88.2053 173.234 82.5596 166.27 82.5596C159.306 82.5596 153.66 88.2053 153.66 95.1696C153.66 102.134 159.306 107.78 166.27 107.78Z" fill="#EBC05B" stroke="#6B582A" stroke-width="0.6" stroke-miterlimit="10"/>
<path d="M155.819 93C156.268 95.1479 157.367 97.1058 158.966 98.6084C160.565 100.111 162.587 101.085 164.759 101.4C165.266 101.468 165.777 101.502 166.289 101.5C168.737 101.487 171.106 100.636 173.004 99.0901C174.901 97.5438 176.212 95.3947 176.719 93C177.038 94.5494 177.008 96.1502 176.632 97.6867C176.256 99.2231 175.543 100.657 174.545 101.884C173.546 103.111 172.288 104.101 170.86 104.781C169.432 105.462 167.871 105.817 166.289 105.82C165.777 105.818 165.266 105.781 164.759 105.71C161.97 105.297 159.458 103.796 157.771 101.537C156.085 99.2769 155.361 96.4415 155.759 93.65C155.739 93.46 155.779 93.25 155.819 93Z" fill="#C49839"/>
</g>
<defs>
<clipPath id="clip0_879_977">
<rect width="196.62" height="166.75" fill="white"/>
</clipPath>
</defs>
</svg>
