<svg viewBox="0 0 196 167" fill="none" xmlns="http://www.w3.org/2000/svg">
<g clip-path="url(#clip0_879_937)">
<path d="M139.721 11.3203H16.0008C7.32991 11.3203 0.300781 18.3494 0.300781 27.0203V150.74C0.300781 159.411 7.32991 166.44 16.0008 166.44H139.721C148.392 166.44 155.421 159.411 155.421 150.74V27.0203C155.421 18.3494 148.392 11.3203 139.721 11.3203Z" fill="#C43971"/>
<path d="M139.72 11.62C143.8 11.6226 147.713 13.2432 150.599 16.1264C153.486 19.0096 155.112 22.9199 155.12 27V150.74C155.117 154.824 153.494 158.739 150.607 161.627C147.719 164.514 143.804 166.137 139.72 166.14H16C11.9165 166.137 8.00097 164.514 5.11348 161.627C2.22599 158.739 0.602649 154.824 0.6 150.74V27C0.610578 22.9208 2.23711 19.0119 5.12345 16.1293C8.00979 13.2467 11.9207 11.6253 16 11.62H139.72ZM139.72 11.02H16C11.76 11.02 7.69336 12.703 4.69336 15.6992C1.69335 18.6955 0.0053 22.76 0 27L0 150.74C0 154.983 1.68571 159.053 4.68629 162.054C7.68687 165.054 11.7565 166.74 16 166.74H139.72C143.963 166.74 148.033 165.054 151.034 162.054C154.034 159.053 155.72 154.983 155.72 150.74V27C155.72 22.7565 154.034 18.6869 151.034 15.6863C148.033 12.6857 143.963 11 139.72 11V11.02Z" fill="#9E2E5B"/>
<path d="M159.058 147.21C147.728 147.21 136.058 139.85 124.428 125.31C118.728 118.123 113.707 110.424 109.428 102.31C108.311 100.084 108.123 97.5066 108.905 95.1424C109.687 92.7782 111.375 90.8209 113.598 89.7C114.698 89.1407 115.897 88.8036 117.127 88.7079C118.357 88.6123 119.594 88.76 120.767 89.1427C121.94 89.5253 123.026 90.1353 123.963 90.9379C124.9 91.7404 125.67 92.7198 126.228 93.82C133.338 107.82 148.718 128.4 159.148 128.4C159.615 128.403 160.08 128.36 160.538 128.27C175.268 125.36 173.538 104.59 173.538 104.38C173.315 101.905 174.079 99.4422 175.664 97.528C177.248 95.6137 179.525 94.4032 181.998 94.16C182.288 94.16 182.578 94.16 182.868 94.16C185.213 94.1513 187.475 95.0248 189.205 96.6069C190.936 98.189 192.008 100.364 192.208 102.7C193.208 113.59 190.458 134.41 173.788 143.36C170.771 144.962 167.532 146.104 164.178 146.75C162.49 147.066 160.776 147.22 159.058 147.21Z" fill="#1C1D21"/>
<path d="M117.85 89.0003C119.541 88.9838 121.202 89.4441 122.643 90.3285C124.085 91.2128 125.248 92.4853 126 94.0003C133.14 108 148.63 128.74 159.18 128.74C159.666 128.743 160.151 128.699 160.63 128.61C175.63 125.61 173.86 104.61 173.84 104.39C173.611 101.993 174.341 99.6019 175.87 97.741C177.399 95.8801 179.603 94.7006 182 94.4603C182.28 94.4603 182.56 94.4603 182.84 94.4603C185.109 94.4564 187.298 95.3037 188.973 96.8348C190.649 98.3658 191.689 100.469 191.89 102.73C192.89 113.54 190.15 134.22 173.62 143.1C170.627 144.684 167.415 145.813 164.09 146.45C162.42 146.785 160.722 146.953 159.02 146.95C147.79 146.95 136.22 139.62 124.62 125.17C118.954 117.996 113.96 110.318 109.7 102.23C108.988 100.84 108.647 99.2903 108.709 97.7301C108.771 96.1699 109.234 94.6519 110.053 93.3225C110.872 91.993 112.019 90.897 113.385 90.1399C114.75 89.3829 116.288 88.9904 117.85 89.0003V89.0003ZM117.85 88.4003C116.327 88.3957 114.825 88.7557 113.47 89.4503C111.184 90.6126 109.452 92.6334 108.654 95.0701C107.855 97.5068 108.055 100.161 109.21 102.45C113.485 110.566 118.507 118.266 124.21 125.45C135.95 140.08 147.65 147.45 159.08 147.45C160.819 147.45 162.554 147.279 164.26 146.94C167.646 146.298 170.916 145.149 173.96 143.53C190.55 134.62 193.58 113.83 192.54 102.58C192.32 100.173 191.21 97.9351 189.427 96.3037C187.644 94.6723 185.316 93.7653 182.9 93.7603C182.6 93.7603 182.3 93.7603 182 93.7603C180.731 93.877 179.498 94.2426 178.37 94.836C177.243 95.4294 176.244 96.239 175.429 97.2187C174.615 98.1984 174.001 99.3289 173.624 100.546C173.247 101.762 173.113 103.042 173.23 104.31C173.23 104.51 174.96 125.02 160.5 127.88C160.061 127.961 159.616 128.001 159.17 128C149.31 128 134.17 108.52 126.52 93.5903C125.71 91.992 124.472 90.6495 122.945 89.7121C121.418 88.7747 119.661 88.2791 117.87 88.2803L117.85 88.4003Z" fill="#111318"/>
<path d="M119.212 108C116.107 107.984 113.123 106.795 110.858 104.672C108.592 102.55 107.213 99.6492 106.995 96.5523C106.778 93.4553 107.738 90.3905 109.685 87.9718C111.631 85.5532 114.42 83.9594 117.492 83.5097C118.072 83.4299 118.656 83.3898 119.242 83.3896C121.527 83.3901 123.767 84.0271 125.71 85.2293C127.653 86.4314 129.223 88.1511 130.244 90.1956C131.265 92.2401 131.696 94.5285 131.489 96.8042C131.282 99.0799 130.445 101.253 129.072 103.08C128.105 104.377 126.89 105.469 125.498 106.293C124.106 107.117 122.564 107.656 120.962 107.88C120.382 107.959 119.797 107.999 119.212 108V108Z" fill="#2CC995"/>
<path d="M119.24 83.6596C122.287 83.6443 125.226 84.7889 127.46 86.8611C129.694 88.9333 131.056 91.7779 131.27 94.8176C131.484 97.8574 130.533 100.865 128.611 103.229C126.689 105.594 123.939 107.138 120.92 107.55C120.353 107.629 119.782 107.669 119.21 107.67C116.163 107.685 113.224 106.54 110.989 104.468C108.755 102.396 107.393 99.5513 107.179 96.5115C106.966 93.4718 107.916 90.4646 109.838 88.1001C111.761 85.7356 114.51 84.191 117.53 83.7796C118.096 83.6998 118.668 83.6597 119.24 83.6596ZM119.24 83.0596C118.637 83.0588 118.036 83.1023 117.44 83.1896C114.276 83.6293 111.397 85.2543 109.386 87.7358C107.374 90.2174 106.381 93.3703 106.606 96.5567C106.83 99.743 108.257 102.725 110.597 104.9C112.937 107.074 116.015 108.279 119.21 108.27C119.808 108.269 120.406 108.229 121 108.15C124.151 107.694 127.013 106.063 129.011 103.584C131.009 101.106 131.996 97.9631 131.773 94.7871C131.551 91.6111 130.135 88.637 127.81 86.4617C125.485 84.2864 122.424 83.0711 119.24 83.0596V83.0596Z" fill="#104A37"/>
<path d="M129.672 93.5398C129.225 95.6877 128.127 97.6457 126.527 99.147C124.927 100.648 122.904 101.62 120.732 101.93C120.228 102.001 119.72 102.038 119.212 102.04C116.759 102.027 114.386 101.173 112.487 99.6204C110.589 98.0679 109.281 95.9108 108.782 93.5098C108.459 95.06 108.487 96.6627 108.861 98.2012C109.236 99.7397 109.948 101.175 110.947 102.404C111.946 103.633 113.206 104.623 114.635 105.304C116.065 105.985 117.628 106.339 119.212 106.34C119.72 106.338 120.228 106.301 120.732 106.23C123.524 105.819 126.04 104.318 127.727 102.055C129.414 99.7927 130.135 96.9532 129.732 94.1598C129.722 93.9522 129.702 93.7453 129.672 93.5398V93.5398Z" fill="#27B082"/>
<path d="M35.2787 166.44C35.4109 165.647 35.4645 164.843 35.4387 164.04C35.3587 163.04 35.3087 162.04 35.2687 161.04C35.2687 159.8 35.1687 158.66 35.0587 157.55C34.9987 156.93 34.9287 156.3 34.8487 155.68L31.1187 127C30.2834 120.731 30.5814 114.363 31.9987 108.2C32.1487 107.51 32.3187 106.83 32.5087 106.14C32.942 104.532 33.456 102.946 34.0487 101.39C34.7635 99.5195 35.5883 97.693 36.5187 95.9199C36.7387 95.4799 36.9787 95.0599 37.2187 94.6299C37.4587 94.1999 37.8687 93.4799 38.2187 92.9099C38.7987 91.9999 39.3687 91.0999 39.9987 90.2599C40.2587 89.8799 40.5287 89.4999 40.7987 89.1399C42.9007 86.2738 45.3156 83.651 47.9987 81.3199L48.1887 81.1599C48.7087 80.7099 49.1887 80.2999 49.7287 79.9099C50.2687 79.5199 50.5487 79.2699 50.9687 78.9799C52.1535 78.1063 53.3854 77.2985 54.6587 76.5599C55.4787 76.0799 56.3087 75.6299 57.2087 75.1799C57.5587 74.9999 57.9287 74.8299 58.2887 74.6599C63.5804 72.2017 69.344 70.9255 75.1787 70.9199C76.1787 70.9199 77.1787 70.9199 78.1787 71.0299C80.1247 71.1834 82.0567 71.4809 83.9587 71.9199C87.2637 72.6677 90.462 73.8268 93.4787 75.3699L94.1387 75.7099L94.3187 75.8099C95.1887 76.2799 96.0287 76.8099 96.7987 77.2599C97.0987 77.4299 97.3887 77.6199 97.6687 77.8099C97.9487 77.9999 98.4587 78.3399 98.8387 78.6099C99.9087 79.3799 100.839 80.1399 101.839 80.9299L101.969 81.0299C102.469 81.4399 102.969 81.8799 103.439 82.3299C103.503 82.3785 103.563 82.432 103.619 82.4899C105.516 84.2532 107.266 86.1696 108.849 88.2199C109.299 88.7999 109.749 89.3999 110.159 89.9999C110.399 90.3199 110.609 90.6299 110.819 90.9399C110.854 90.9867 110.884 91.037 110.909 91.0899C111.955 92.6379 112.913 94.2438 113.779 95.8999C114.777 97.8238 115.655 99.8076 116.409 101.84C116.962 103.315 117.439 104.817 117.839 106.34C118.019 107 118.179 107.65 118.319 108.34C119 111.314 119.415 114.342 119.559 117.39C119.559 118.3 119.629 119.18 119.629 120.01C119.631 122.351 119.48 124.689 119.179 127.01L115.449 155.75C115.219 157.528 115.079 159.317 115.029 161.11C115.029 161.72 114.979 162.33 114.949 162.94C114.879 164.16 114.779 165.35 114.649 166.48L35.2787 166.44Z" fill="#2CC995"/>
<path d="M75.1909 71.2196C76.1909 71.2196 77.1909 71.2196 78.1909 71.3296C83.4872 71.7596 88.6479 73.2239 93.3809 75.6396L94.0409 75.9796L94.2109 76.0696C95.0709 76.5396 95.9009 77.0696 96.6809 77.5196C96.9709 77.6896 97.2609 77.8696 97.5409 78.0596L98.7009 78.8496C99.7609 79.6096 100.701 80.3596 101.641 81.1396H101.721C102.231 81.5596 102.721 81.9996 103.181 82.4296C103.229 82.4643 103.272 82.5046 103.311 82.5496V82.5496C105.194 84.2941 106.927 86.1941 108.491 88.2296C108.961 88.8296 109.401 89.4196 109.811 90.0096C110.031 90.3096 110.241 90.6196 110.471 91.0096L110.561 91.1496C111.591 92.6829 112.536 94.272 113.391 95.9096C114.392 97.8205 115.267 99.7947 116.011 101.82C116.559 103.288 117.033 104.783 117.431 106.3C117.601 106.92 117.771 107.57 117.911 108.24C118.59 111.197 119.001 114.209 119.141 117.24C119.191 118.14 119.211 119.02 119.211 119.84C119.21 122.16 119.063 124.478 118.771 126.78L116.611 143.39L116.191 146.66L115.041 155.52C114.808 157.308 114.664 159.107 114.611 160.91C114.611 161.52 114.611 162.13 114.531 162.74C114.461 163.85 114.381 164.94 114.261 165.99H35.6209C35.7315 165.289 35.7683 164.578 35.7309 163.87C35.6609 162.87 35.6109 161.87 35.5709 160.87C35.5709 159.63 35.4709 158.48 35.3609 157.37C35.3609 156.82 35.2409 156.22 35.1509 155.48L34.7909 153L33.0509 139.6L31.4209 126.97C30.5995 120.744 30.8975 114.421 32.3009 108.3C32.4609 107.59 32.6309 106.92 32.8109 106.3C33.2408 104.701 33.7515 103.126 34.3409 101.58C35.0531 99.721 35.8711 97.9047 36.7909 96.1396C37.0209 95.7096 37.2509 95.2796 37.4909 94.8596C37.8209 94.2596 38.1609 93.6796 38.4909 93.1496C39.0509 92.2096 39.6209 91.3496 40.2209 90.4996C40.4709 90.1296 40.7409 89.7596 41.0109 89.3996C43.1175 86.5433 45.5358 83.9306 48.2209 81.6096L48.3709 81.4896C48.8809 81.0596 49.3709 80.6496 49.9009 80.2496C50.2509 79.9696 50.6409 79.6796 51.1209 79.3396C52.3006 78.4718 53.5257 77.6673 54.7909 76.9296C55.6009 76.4596 56.4309 76.0096 57.3009 75.5696H57.3709C57.7109 75.3963 58.0442 75.2363 58.3709 75.0896C63.6178 72.6374 69.3392 71.3675 75.1309 71.3696L75.1909 71.2196ZM75.1309 70.7696C69.2566 70.7675 63.4535 72.0545 58.1309 74.5396L57.0309 75.0596C56.1609 75.4996 55.3209 75.9496 54.4709 76.4496C53.1906 77.1963 51.949 78.0073 50.7509 78.8796C50.3309 79.1796 49.9209 79.4896 49.5109 79.8196C49.1009 80.1496 48.5109 80.6296 47.9709 81.0696L47.7709 81.2396C45.0775 83.5501 42.6493 86.1527 40.5309 88.9996C40.2509 89.3696 39.9809 89.7496 39.7309 90.1196C39.1109 90.9896 38.5309 91.8796 37.9809 92.7996C37.6309 93.3596 37.2909 93.9396 36.9809 94.5296C36.7309 94.9496 36.5009 95.3796 36.2709 95.8196C35.3366 97.6059 34.5085 99.4458 33.7909 101.33C33.1934 102.896 32.676 104.491 32.2409 106.11C32.0509 106.79 31.8809 107.48 31.7309 108.17C30.3115 114.359 30.0067 120.753 30.8309 127.05L32.4709 139.68L34.2009 153L34.5509 155.71C34.6309 156.33 34.7009 156.95 34.7609 157.57C34.8709 158.73 34.9409 159.88 34.9709 161.04C34.9709 162.04 35.0609 163.04 35.1409 164.04C35.1637 164.938 35.0933 165.836 34.9309 166.72H115.001C115.151 165.46 115.251 164.19 115.331 162.9C115.331 162.29 115.391 161.67 115.411 161.06C115.461 159.277 115.601 157.498 115.831 155.73L116.981 146.86L117.411 143.6L119.571 127C119.874 124.679 120.025 122.34 120.021 120C120.021 119.12 120.021 118.24 119.951 117.37C119.81 114.305 119.392 111.259 118.701 108.27C118.561 107.61 118.401 106.95 118.221 106.27C117.811 104.74 117.341 103.22 116.781 101.74C116.031 99.6834 115.145 97.679 114.131 95.7396C113.266 94.1057 112.308 92.5231 111.261 90.9996C111.236 90.9384 111.202 90.8812 111.161 90.8296C110.951 90.5096 110.731 90.1896 110.501 89.8296C110.081 89.2196 109.641 88.6196 109.181 88.0396C107.595 85.9791 105.839 84.0557 103.931 82.2896L103.741 82.1096C103.251 81.6496 102.741 81.2196 102.251 80.7996C102.216 80.7605 102.176 80.7268 102.131 80.6996C101.131 79.8596 100.131 79.0896 99.1309 78.3396C98.7509 78.0696 98.3609 77.7996 97.9609 77.5396C97.5609 77.2796 97.3809 77.1596 97.0809 76.9796C96.2609 76.4596 95.4309 75.9796 94.5809 75.5196L93.7309 75.0796C90.6929 73.5297 87.4753 72.3609 84.1509 71.5996C82.2275 71.1662 80.276 70.8688 78.3109 70.7096V70.7096C77.3109 70.6396 76.3109 70.5996 75.2409 70.5996L75.1309 70.7696Z" fill="#104A37"/>
<path d="M77.0914 101.57C57.5414 101.57 41.7314 91.4099 35.8414 87.0399C34.2314 85.8682 33.0351 84.2156 32.4249 82.3202C31.8147 80.4248 31.8222 78.3847 32.4461 76.4938C33.0701 74.6029 34.2784 72.959 35.8969 71.7991C37.5153 70.6392 39.4603 70.0232 41.4514 70.0399C43.4652 70.0729 45.4134 70.761 47.0014 71.9999C50.4214 74.5399 62.7214 82.8299 77.0914 82.8299C78.0914 82.8299 79.0914 82.8299 80.0914 82.7099C92.4214 81.7099 98.3314 76.7699 102.651 73.1799L104.361 71.7699C106.311 70.2157 108.798 69.4996 111.275 69.779C113.752 70.0584 116.017 71.3105 117.571 73.2599C119.126 75.2092 119.842 77.6961 119.562 80.1735C119.283 82.6508 118.031 84.9157 116.081 86.4699C115.661 86.7999 115.211 87.1799 114.741 87.5699C109.501 91.9299 99.8714 99.9499 81.6214 101.44C80.1414 101.51 78.6114 101.57 77.0914 101.57Z" fill="#1C1D21"/>
<path d="M110.241 70.0001C112.127 70 113.966 70.5861 115.505 71.6773C117.044 72.7684 118.205 74.3107 118.829 76.0909C119.453 77.871 119.508 79.801 118.987 81.6138C118.466 83.4267 117.394 85.0328 115.921 86.2101C115.501 86.5501 115.051 86.9101 114.581 87.3101L114.511 87.3701C109.361 91.6601 99.7705 99.6401 81.6105 101.12C80.1205 101.24 78.6105 101.3 77.0905 101.3C57.6305 101.3 41.8905 91.1801 36.0205 86.8301C35.0606 86.1184 34.2502 85.2245 33.6356 84.1995C33.0211 83.1746 32.6145 82.0386 32.439 80.8566C32.2635 79.6745 32.3226 78.4694 32.6128 77.3101C32.903 76.1508 33.4188 75.0601 34.1305 74.1001C34.9818 72.9612 36.0863 72.0358 37.3567 71.3972C38.6271 70.7585 40.0286 70.424 41.4505 70.4201C43.4013 70.4179 45.2999 71.0497 46.8605 72.2201C50.3005 74.7701 62.6705 83.1101 77.1305 83.1101C78.1305 83.1101 79.1305 83.1101 80.1305 82.9801C92.5505 81.9801 98.5105 76.9801 102.871 73.3901C103.471 72.8801 104.041 72.3901 104.571 71.9901C106.175 70.6932 108.177 69.9871 110.241 69.9901V70.0001ZM110.241 69.3901C108.058 69.3949 105.942 70.1426 104.241 71.5101C103.701 71.9401 103.131 72.4101 102.521 72.9201C98.2305 76.4901 92.3605 81.3801 80.1305 82.3801C79.1305 82.4601 78.1305 82.5001 77.1305 82.5001C62.9105 82.5001 50.7705 74.3601 47.2205 71.7201C45.1512 70.3087 42.6161 69.7524 40.146 70.1679C37.6758 70.5833 35.4622 71.9382 33.9684 73.9488C32.4746 75.9595 31.8165 78.4701 32.1319 80.955C32.4473 83.4399 33.7118 85.7064 35.6605 87.2801C41.8205 91.8501 57.5705 101.87 77.0905 101.87C78.5905 101.87 80.0905 101.81 81.6605 101.69C100.011 100.19 109.661 92.1301 114.891 87.8001C115.391 87.3901 115.891 87.0001 116.291 86.6501C117.862 85.3956 119.004 83.6839 119.56 81.7517C120.116 79.8195 120.057 77.7624 119.393 75.8648C118.729 73.9672 117.491 72.3229 115.851 71.1594C114.212 69.9959 112.251 69.3706 110.241 69.3701V69.3901Z" fill="#111318"/>
<path d="M54.1992 119.49V117.18H59.7592L55.4092 112.83L57.0392 111.2L61.3992 115.55V109.44H63.6992V115.55L68.0492 111.2L69.6892 112.83L65.3392 117.18H70.8992V119.49H54.1992Z" fill="#2CC995"/>
<path d="M193.471 96.64C192.891 96.3731 192.26 96.2366 191.621 96.24H172.371C171.983 96.2394 171.596 96.2898 171.221 96.39C170.624 95.7795 170.091 95.1093 169.631 94.39C168.642 92.7733 167.964 90.9859 167.631 89.12C167.32 87.4385 167.183 85.7295 167.221 84.02C167.221 82.34 167.391 80.72 167.541 79.22C167.576 78.8044 167.767 78.4173 168.074 78.1357C168.382 77.8541 168.784 77.6985 169.201 77.7H169.361C169.747 77.7372 170.109 77.907 170.384 78.1804C170.659 78.4538 170.831 78.8141 170.871 79.2C171.031 80.9 171.191 82.31 171.451 83.69C171.689 85.0587 172.067 86.3992 172.581 87.69C172.624 87.8015 172.699 87.8976 172.797 87.9654C172.895 88.0333 173.012 88.0697 173.131 88.07C173.282 88.0668 173.428 88.0101 173.541 87.91C173.601 87.8537 173.649 87.7855 173.682 87.7098C173.715 87.6341 173.731 87.5525 173.731 87.47V65.35C173.73 65.1058 173.778 64.8639 173.872 64.6388C173.967 64.4137 174.106 64.21 174.281 64.04C174.452 63.8661 174.656 63.7279 174.881 63.6335C175.106 63.539 175.347 63.4903 175.591 63.49C176.08 63.5057 176.543 63.7123 176.882 64.0656C177.22 64.419 177.407 64.8908 177.401 65.38V77.49C177.401 77.5951 177.422 77.6991 177.462 77.7961C177.502 77.8932 177.561 77.9814 177.635 78.0557C177.71 78.13 177.798 78.1889 177.895 78.2291C177.992 78.2693 178.096 78.29 178.201 78.29C178.312 78.2927 178.423 78.2729 178.526 78.2316C178.629 78.1903 178.723 78.1286 178.801 78.05C178.874 77.9764 178.932 77.889 178.972 77.7929C179.011 77.6968 179.031 77.5939 179.031 77.49V62.86C179.031 62.3667 179.227 61.8936 179.576 61.5448C179.925 61.196 180.398 61 180.891 61C181.384 61 181.857 61.196 182.206 61.5448C182.555 61.8936 182.751 62.3667 182.751 62.86V77.47C182.748 77.6323 182.794 77.7918 182.883 77.9277C182.972 78.0636 183.099 78.1697 183.249 78.2323C183.399 78.2948 183.564 78.3108 183.723 78.2783C183.882 78.2458 184.028 78.1663 184.141 78.05C184.218 77.9745 184.279 77.8842 184.32 77.7845C184.362 77.6848 184.382 77.5779 184.381 77.47V65.38C184.381 64.8867 184.577 64.4136 184.926 64.0648C185.275 63.716 185.748 63.52 186.241 63.52C186.734 63.52 187.207 63.716 187.556 64.0648C187.905 64.4136 188.101 64.8867 188.101 65.38V77.5C188.101 77.7042 188.182 77.9001 188.327 78.0445C188.471 78.1889 188.667 78.27 188.871 78.27V78.27C188.987 78.2779 189.103 78.2626 189.213 78.2248C189.323 78.187 189.424 78.1276 189.511 78.05C189.652 77.9016 189.731 77.7047 189.731 77.5V71C189.731 70.5067 189.927 70.0336 190.276 69.6848C190.625 69.336 191.098 69.14 191.591 69.14C192.084 69.14 192.557 69.336 192.906 69.6848C193.255 70.0336 193.451 70.5067 193.451 71L193.471 96.64Z" fill="#2CC995" stroke="#104A37" stroke-width="0.6"/>
<path d="M172.379 104.28C171.344 104.28 170.351 103.869 169.618 103.138C168.885 102.407 168.471 101.415 168.469 100.38C168.463 99.5445 168.728 98.7299 169.224 98.0576C169.719 97.3853 170.419 96.8914 171.219 96.6497C171.59 96.5301 171.978 96.4694 172.369 96.4697H191.609C192.122 96.4684 192.63 96.5683 193.104 96.7637C193.579 96.9591 194.01 97.2462 194.373 97.6085C194.736 97.9708 195.024 98.4011 195.221 98.875C195.418 99.3488 195.519 99.8567 195.519 100.37C195.519 100.957 195.389 101.538 195.139 102.07C194.816 102.728 194.315 103.284 193.693 103.672C193.071 104.061 192.352 104.268 191.619 104.27H172.379V104.28Z" fill="#2CC995"/>
<path d="M191.608 96.76C192.26 96.7549 192.901 96.9315 193.458 97.27C193.997 97.5856 194.443 98.0372 194.752 98.5795C195.061 99.1219 195.221 99.7359 195.218 100.36C195.218 100.903 195.098 101.439 194.868 101.93C194.565 102.532 194.1 103.037 193.526 103.39C192.953 103.743 192.292 103.93 191.618 103.93H172.378C171.544 103.893 170.748 103.567 170.127 103.009C169.506 102.451 169.097 101.695 168.971 100.869C168.845 100.043 169.009 99.1997 169.435 98.4814C169.861 97.7631 170.523 97.2149 171.308 96.93C171.654 96.8211 172.015 96.7671 172.378 96.77H191.608V96.76ZM191.608 96.17H172.368C171.799 96.1423 171.23 96.2304 170.695 96.4292C170.161 96.628 169.672 96.9333 169.26 97.3265C168.847 97.7197 168.518 98.1926 168.294 98.7167C168.069 99.2407 167.953 99.8049 167.953 100.375C167.953 100.945 168.069 101.509 168.294 102.033C168.518 102.557 168.847 103.03 169.26 103.424C169.672 103.817 170.161 104.122 170.695 104.321C171.23 104.52 171.799 104.608 172.368 104.58H191.608C192.399 104.581 193.174 104.359 193.844 103.94C194.514 103.52 195.053 102.921 195.398 102.21C195.667 101.637 195.807 101.013 195.808 100.38C195.808 99.8276 195.699 99.2807 195.488 98.7705C195.276 98.2602 194.966 97.7968 194.575 97.4066C194.183 97.0165 193.719 96.7074 193.209 96.4969C192.698 96.2864 192.151 96.1787 191.598 96.18L191.608 96.17Z" fill="#104A37"/>
<path opacity="0.5" d="M76.83 91.16C101.865 91.16 122.16 70.8651 122.16 45.83C122.16 20.7949 101.865 0.5 76.83 0.5C51.7949 0.5 31.5 20.7949 31.5 45.83C31.5 70.8651 51.7949 91.16 76.83 91.16Z" fill="#5BBDEF"/>
<path d="M76.83 91.16C101.865 91.16 122.16 70.8651 122.16 45.83C122.16 20.7949 101.865 0.5 76.83 0.5C51.7949 0.5 31.5 20.7949 31.5 45.83C31.5 70.8651 51.7949 91.16 76.83 91.16Z" stroke="#FAFAFA" stroke-width="0.6" stroke-miterlimit="10"/>
<path d="M106.892 24.33C106.654 24.3276 106.42 24.2671 106.211 24.1538C106.002 24.0406 105.824 23.8779 105.692 23.68C104.412 21.7495 102.981 19.9237 101.412 18.22C99.5294 16.4633 97.4328 14.9513 95.1717 13.72C94.9951 13.6371 94.8372 13.5191 94.7075 13.3733C94.5779 13.2275 94.4793 13.0568 94.4176 12.8717C94.3559 12.6867 94.3325 12.491 94.3488 12.2965C94.365 12.1021 94.4206 11.913 94.5122 11.7407C94.6038 11.5685 94.7294 11.4166 94.8814 11.2943C95.0335 11.1721 95.2088 11.082 95.3967 11.0296C95.5846 10.9771 95.7812 10.9634 95.9746 10.9893C96.168 11.0151 96.3541 11.08 96.5217 11.18C99.0436 12.5361 101.377 14.2171 103.462 16.18C105.161 18.0159 106.709 19.9856 108.092 22.07C108.302 22.3889 108.378 22.7778 108.303 23.1522C108.228 23.5267 108.008 23.8565 107.692 24.07C107.455 24.2312 107.178 24.3214 106.892 24.33V24.33Z" fill="#FAFAFA"/>
<path d="M95.8517 11.5097C96.0019 11.5108 96.1495 11.5485 96.2817 11.6197C98.7662 12.9541 101.063 14.6119 103.112 16.5497C104.787 18.3657 106.315 20.3118 107.682 22.3697C107.775 22.5759 107.792 22.809 107.727 23.0261C107.663 23.2432 107.522 23.4297 107.331 23.5514C107.14 23.673 106.911 23.7217 106.687 23.6883C106.463 23.6549 106.259 23.5418 106.112 23.3697C104.817 21.4092 103.365 19.5565 101.772 17.8297C99.8574 16.0288 97.7159 14.4857 95.4017 13.2397C95.2159 13.1409 95.0685 12.9826 94.9833 12.7901C94.8981 12.5976 94.88 12.3821 94.9319 12.1781C94.9838 11.9741 95.1026 11.7934 95.2694 11.6649C95.4362 11.5365 95.6412 11.4677 95.8517 11.4697V11.5097ZM95.8517 10.4697C95.4199 10.4711 95.001 10.6165 94.6611 10.8829C94.3213 11.1493 94.08 11.5214 93.9756 11.9404C93.8711 12.3594 93.9094 12.8012 94.0844 13.196C94.2594 13.5907 94.5611 13.9158 94.9417 14.1197C97.1579 15.3283 99.2139 16.8099 101.062 18.5297C102.608 20.2388 104.015 22.0679 105.272 23.9997C105.452 24.2638 105.694 24.4806 105.976 24.6319C106.258 24.7833 106.572 24.8649 106.892 24.8697C107.24 24.8656 107.58 24.7686 107.877 24.5886C108.175 24.4087 108.419 24.1524 108.584 23.8464C108.75 23.5404 108.83 23.1957 108.817 22.8482C108.805 22.5006 108.699 22.1628 108.512 21.8697C107.114 19.7457 105.545 17.7391 103.822 15.8697C101.7 13.8628 99.3229 12.1447 96.7517 10.7597C96.4762 10.6078 96.1664 10.5286 95.8517 10.5297V10.4697Z" fill="#FAFAFA"/>
<path d="M109.548 29.2198C109.259 29.2218 108.976 29.1378 108.734 28.9786C108.493 28.8194 108.304 28.5921 108.192 28.3255C108.08 28.0589 108.05 27.765 108.105 27.4811C108.16 27.1973 108.298 26.9362 108.502 26.731C108.706 26.5258 108.966 26.3857 109.25 26.3286C109.533 26.2714 109.827 26.2998 110.095 26.41C110.362 26.5202 110.59 26.7073 110.751 26.9476C110.912 27.1879 110.998 27.4706 110.998 27.7598C110.996 28.1445 110.842 28.5128 110.571 28.7858C110.3 29.0587 109.933 29.2145 109.548 29.2198V29.2198Z" fill="#FAFAFA"/>
<path d="M109.551 26.7998C109.749 26.7998 109.942 26.8585 110.106 26.9683C110.271 27.0782 110.399 27.2344 110.475 27.4171C110.55 27.5998 110.57 27.8009 110.532 27.9949C110.493 28.1889 110.398 28.3671 110.258 28.5069C110.118 28.6468 109.94 28.742 109.746 28.7806C109.552 28.8192 109.351 28.7994 109.168 28.7237C108.985 28.648 108.829 28.5198 108.719 28.3554C108.609 28.1909 108.551 27.9976 108.551 27.7998C108.551 27.5346 108.656 27.2802 108.844 27.0927C109.031 26.9052 109.286 26.7998 109.551 26.7998ZM109.551 25.7998C109.155 25.7998 108.769 25.9171 108.44 26.1369C108.111 26.3566 107.854 26.669 107.703 27.0344C107.552 27.3999 107.512 27.802 107.589 28.19C107.666 28.5779 107.857 28.9343 108.137 29.214C108.416 29.4937 108.773 29.6842 109.161 29.7614C109.549 29.8385 109.951 29.7989 110.316 29.6476C110.682 29.4962 110.994 29.2398 111.214 28.9109C111.433 28.582 111.551 28.1954 111.551 27.7998C111.551 27.2694 111.34 26.7607 110.965 26.3856C110.59 26.0105 110.081 25.7998 109.551 25.7998Z" fill="#FAFAFA"/>
<path d="M80.1802 84.0097C98.2785 84.0097 112.95 69.3381 112.95 51.2397C112.95 33.1414 98.2785 18.4697 80.1802 18.4697C62.0818 18.4697 47.4102 33.1414 47.4102 51.2397C47.4102 69.3381 62.0818 84.0097 80.1802 84.0097Z" fill="#27B082"/>
<path d="M80.1794 18.7797C86.6018 18.7797 92.8799 20.6843 98.2198 24.2526C103.56 27.8209 107.721 32.8926 110.179 38.8263C112.636 44.76 113.278 51.2891 112.025 57.5879C110.771 63.8868 107.678 69.6724 103.136 74.213C98.5936 78.7536 92.8071 81.8453 86.5078 83.097C80.2086 84.3487 73.6797 83.7043 67.7467 81.2452C61.8138 78.7861 56.7434 74.6228 53.1767 69.2818C49.6101 63.9408 47.7074 57.6621 47.7094 51.2397C47.72 42.6323 51.1446 34.3806 57.2319 28.2952C63.3192 22.2097 71.572 18.7876 80.1794 18.7797V18.7797ZM80.1794 18.1797C73.6383 18.1797 67.2442 20.1195 61.8056 23.7537C56.3671 27.3879 52.1284 32.5533 49.6257 38.5967C47.123 44.64 46.4687 51.2898 47.7456 57.705C49.0224 64.1202 52.173 70.0127 56.7989 74.6372C61.4248 79.2618 67.3183 82.4106 73.7339 83.6855C80.1495 84.9604 86.7991 84.304 92.8417 81.7995C98.8842 79.295 104.048 75.0548 107.681 69.6151C111.314 64.1755 113.251 57.7807 113.249 51.2397C113.249 46.8973 112.394 42.5975 110.732 38.5859C109.07 34.5742 106.634 30.9292 103.563 27.8592C100.492 24.7892 96.8462 22.3542 92.834 20.6934C88.8218 19.0325 84.5217 18.1784 80.1794 18.1797V18.1797Z" fill="#104A37"/>
<path d="M110.321 51.9364C110.701 37.5378 99.3362 25.5577 84.9376 25.1782C70.539 24.7986 58.559 36.1633 58.1794 50.5619C57.7999 64.9605 69.1645 76.9405 83.5631 77.3201C97.9617 77.6996 109.942 66.3349 110.321 51.9364Z" fill="#2FD69F"/>
<path d="M84.2516 25.4604C89.3532 25.4584 94.3408 26.9695 98.5835 29.8026C102.826 32.6357 106.133 36.6634 108.087 41.3763C110.04 46.0892 110.551 51.2756 109.557 56.2793C108.562 61.283 106.105 65.8792 102.498 69.4866C98.8905 73.094 94.2942 75.5505 89.2905 76.5453C84.2868 77.5401 79.1005 77.0285 74.3875 75.0753C69.6746 73.1221 65.6469 69.8149 62.8138 65.5723C59.9807 61.3296 58.4696 56.342 58.4716 51.2404C58.4822 44.4063 61.2016 37.8552 66.034 33.0228C70.8664 28.1904 77.4175 25.4709 84.2516 25.4604V25.4604ZM84.2516 24.8604C79.0313 24.8584 73.9277 26.4047 69.5863 29.3037C65.245 32.2027 61.8609 36.3242 59.8623 41.1467C57.8637 45.9693 57.3402 51.2762 58.3582 56.3963C59.3761 61.5164 61.8897 66.2196 65.581 69.9109C69.2723 73.6022 73.9755 76.1158 79.0956 77.1338C84.2157 78.1517 89.5227 77.6283 94.3452 75.6296C99.1678 73.631 103.289 70.247 106.188 65.9056C109.087 61.5643 110.634 56.4607 110.632 51.2404C110.632 44.2439 107.852 37.5341 102.905 32.5869C97.9578 27.6397 91.248 24.8604 84.2516 24.8604V24.8604Z" fill="#104A37"/>
<path d="M76.6481 90.8503C65.1452 90.8501 54.0814 86.4333 45.741 78.5115C37.4005 70.5898 32.4202 59.768 31.8281 48.2803C33.9981 49.9203 36.5081 53.0003 39.4181 56.5903C43.5681 61.6703 48.2881 67.4403 53.8481 71.5903L54.1281 71.8003C58.2281 74.9003 61.1981 77.1503 66.3081 77.1503H66.6881C72.4481 77.0303 74.5781 74.8303 76.6281 72.6903C78.6781 70.5503 80.9981 68.2403 87.4481 68.2403C93.6881 68.2403 95.3481 70.0203 96.9481 71.7503C98.5481 73.4803 99.8681 74.8903 104.528 74.8903C107.3 74.8293 110.027 74.1782 112.528 72.9803C108.335 78.529 102.913 83.0303 96.6877 86.1309C90.4623 89.2315 83.6029 90.8469 76.6481 90.8503V90.8503Z" fill="#2CC995"/>
<path d="M32.1717 48.9399C34.7081 51.3646 37.0488 53.9861 39.1717 56.7799C43.3417 61.8799 48.0717 67.6599 53.6617 71.8799L53.9317 72.0899C58.0917 75.2299 61.0917 77.4999 66.3017 77.4999H66.6817C72.5717 77.3799 74.7417 75.1299 76.8417 72.9499C78.9417 70.7699 81.0717 68.5499 87.4417 68.5499C93.5517 68.5499 95.1717 70.2799 96.7217 71.9599C98.2717 73.6399 99.7217 75.1999 104.522 75.1999C106.926 75.1566 109.301 74.6613 111.522 73.7399C105.919 80.773 98.3213 85.9475 89.725 88.5843C81.1286 91.221 71.9359 91.1966 63.3537 88.5143C54.7714 85.832 47.2009 80.6172 41.636 73.5545C36.0711 66.4919 32.7719 57.9115 32.1717 48.9399V48.9399ZM31.5117 47.6699C31.8625 57.105 35.1603 66.1931 40.9419 73.6575C46.7235 81.1219 54.6983 86.5874 63.746 89.2863C72.7936 91.9851 82.4595 91.7817 91.3855 88.7045C100.312 85.6273 108.049 79.831 113.512 72.1299C110.751 73.6569 107.665 74.5005 104.512 74.5899C94.9017 74.5899 99.5117 67.9399 87.4317 67.9399C74.5717 67.9399 78.2917 76.6499 66.6617 76.9399H66.2917C61.1717 76.9399 58.2917 74.6999 54.0117 71.4399C44.1717 63.9999 36.6717 51.1799 31.5117 47.6699V47.6699Z" fill="#104A37"/>
<path d="M103.539 79.8301C101.438 81.5115 99.1811 82.9882 96.7991 84.2401C91.587 86.9811 85.8702 88.629 79.9989 89.083C74.1276 89.5371 68.2255 88.7876 62.654 86.8805C57.0825 84.9734 51.9591 81.9489 47.5975 77.9922C43.236 74.0355 39.7282 69.23 37.2891 63.8701C43.0023 73.8133 52.1579 81.3211 63.0275 84.9762C73.8971 88.6313 85.7288 88.181 96.2891 83.7101C98.8155 82.6334 101.242 81.335 103.539 79.8301V79.8301Z" fill="#27B082"/>
<path d="M87.2403 84.7104C85.9012 84.7104 84.5922 84.3126 83.4795 83.5676C82.3668 82.8226 81.5004 81.7638 80.9902 80.5257C80.4801 79.2876 80.3492 77.9258 80.6141 76.6131C80.879 75.3005 81.5278 74.0961 82.4782 73.1527C83.4286 72.2093 84.6378 71.5694 85.9524 71.3143C87.267 71.0591 88.6277 71.2002 89.8621 71.7195C91.0964 72.2388 92.1487 73.113 92.8854 74.2313C93.6222 75.3495 94.0102 76.6613 94.0003 78.0004C93.9871 79.7846 93.2691 81.4912 92.0027 82.7482C90.7364 84.0051 89.0245 84.7105 87.2403 84.7104V84.7104Z" fill="#1C1D21"/>
<path d="M87.2416 71.5002C88.5176 71.5002 89.765 71.8781 90.8264 72.5862C91.8879 73.2943 92.7159 74.3008 93.206 75.4789C93.6961 76.657 93.8263 77.9538 93.5803 79.2058C93.3342 80.4579 92.7229 81.609 91.8235 82.514C90.924 83.419 89.7767 84.0374 88.5263 84.2912C87.2758 84.5449 85.9782 84.4227 84.7971 83.9399C83.616 83.4571 82.6043 82.6353 81.8897 81.5782C81.1751 80.5212 80.7895 79.2761 80.7816 78.0002C80.7816 77.1523 80.9488 76.3128 81.2736 75.5296C81.5983 74.7464 82.0743 74.0349 82.6743 73.4358C83.2743 72.8368 83.9865 72.3619 84.7702 72.0383C85.554 71.7148 86.3938 71.5489 87.2416 71.5502V71.5002ZM87.2416 70.9502C85.8423 70.9483 84.474 71.3622 83.3104 72.1394C82.1468 72.9167 81.2404 74.0222 80.7064 75.3156C80.1723 76.6089 80.0346 78.0318 80.3108 79.4036C80.5869 80.7754 81.2645 82.0342 82.2575 83.0201C83.2505 84.006 84.514 84.6747 85.8877 84.9411C87.2615 85.2075 88.6834 85.0597 89.9729 84.5164C91.2624 83.9731 92.3614 83.0589 93.1304 81.8898C93.8993 80.7207 94.3035 79.3495 94.2916 77.9502C94.2758 76.0899 93.5264 74.3111 92.2063 73.0003C90.8861 71.6895 89.102 70.9528 87.2416 70.9502V70.9502Z" fill="#111318"/>
<path d="M16.5698 166.44C10.0279 143.929 10.4112 119.97 17.6698 97.68C18.7398 94.41 19.9998 91.16 21.2898 88L39.6798 96C38.6798 98.38 37.6798 100.84 36.9098 103.33C36.5598 104.33 36.2298 105.43 35.9098 106.49C31.4687 121.641 30.7823 137.645 33.9098 153.12C34.8144 157.65 36.0477 162.109 37.5998 166.46L16.5698 166.44Z" fill="#1C1D21"/>
<path d="M21.4485 88.4199L36.7285 94.9999L39.2785 96.0999C38.2785 98.3999 37.4185 100.78 36.6285 103.17C36.2885 104.17 35.9485 105.26 35.6285 106.35C31.182 121.544 30.4956 137.591 33.6285 153.11C34.5126 157.521 35.7055 161.866 37.1985 166.11H16.7985C10.3456 143.724 10.7637 119.916 17.9985 97.7699C18.9985 94.6099 20.1985 91.4699 21.4885 88.4199H21.4485ZM21.1685 87.6299C19.7685 90.9032 18.5219 94.2365 17.4285 97.6299C10.178 120.063 9.82959 144.156 16.4285 166.79H37.9985C34.8532 158.07 32.9774 148.943 32.4285 139.69C31.7628 128.53 33.0315 117.338 36.1785 106.61C36.4885 105.55 36.8185 104.49 37.1785 103.45C38.0185 100.89 38.9752 98.3665 40.0485 95.8799L39.6085 95.6899L36.9985 94.4899L21.1285 87.6299H21.1685Z" fill="#111318"/>
<path d="M29.8386 108C26.7332 107.986 23.7476 106.799 21.4803 104.677C19.213 102.555 17.8315 99.6549 17.6127 96.5572C17.3938 93.4595 18.3539 90.3935 20.3003 87.9739C22.2468 85.5542 25.0359 83.9596 28.1086 83.5097C28.6918 83.4298 29.2798 83.3898 29.8686 83.3896C32.816 83.4083 35.6594 84.4813 37.8843 86.4146C40.1092 88.3479 41.5687 91.0137 41.9986 93.9296C42.2289 95.5294 42.1414 97.1589 41.7412 98.7248C41.3409 100.291 40.6358 101.762 39.666 103.055C38.6963 104.348 37.481 105.437 36.0898 106.26C34.6986 107.083 33.1588 107.623 31.5586 107.85C30.9892 107.938 30.4146 107.988 29.8386 108V108Z" fill="#2CC995"/>
<path d="M29.8687 83.6596C32.9159 83.6443 35.8548 84.7889 38.089 86.8611C40.3232 88.9333 41.6854 91.7779 41.8991 94.8176C42.1129 97.8574 41.1622 100.865 39.24 103.229C37.3178 105.594 34.568 107.138 31.5487 107.55C30.9821 107.629 30.4108 107.669 29.8387 107.67C26.7915 107.685 23.8526 106.54 21.6184 104.468C19.3842 102.396 18.022 99.5513 17.8082 96.5115C17.5945 93.4718 18.5451 90.4646 20.4674 88.1001C22.3896 85.7356 25.1393 84.191 28.1587 83.7796C28.7252 83.6995 29.2966 83.6594 29.8687 83.6596V83.6596ZM29.8687 83.0596C29.2663 83.0588 28.6647 83.1023 28.0687 83.1896C24.9048 83.6293 22.026 85.2543 20.0146 87.7358C18.0033 90.2174 17.0095 93.3703 17.2344 96.5567C17.4593 99.743 18.886 102.725 21.2259 104.9C23.5659 107.074 26.6444 108.279 29.8387 108.27C30.4373 108.269 31.0353 108.229 31.6287 108.15C34.7797 107.694 37.6416 106.063 39.6399 103.584C41.6383 101.106 42.6251 97.9631 42.4023 94.7871C42.1795 91.6111 40.7636 88.637 38.4388 86.4617C36.114 84.2864 33.0525 83.0711 29.8687 83.0596V83.0596Z" fill="#104A37"/>
<path d="M40.2983 93.5398C39.8475 95.6858 38.7482 97.6415 37.1491 99.1422C35.5501 100.643 33.5287 101.616 31.3583 101.93C30.8548 102.001 30.3469 102.038 29.8383 102.04C27.3848 102.027 25.0097 101.174 23.1096 99.6213C21.2096 98.0689 19.8996 95.9116 19.3983 93.5098C19.0796 95.0605 19.1097 96.6626 19.4862 98.2003C19.8628 99.7379 20.5765 101.173 21.5757 102.401C22.5749 103.629 23.8346 104.619 25.2636 105.3C26.6926 105.982 28.2552 106.337 29.8383 106.34C30.3469 106.338 30.8548 106.301 31.3583 106.23C34.1484 105.814 36.6608 104.312 38.347 102.05C40.0332 99.789 40.7562 96.9524 40.3583 94.1598C40.3783 93.9998 40.3383 93.7398 40.2983 93.5398Z" fill="#27B082"/>
</g>
<defs>
<clipPath id="clip0_879_937">
<rect width="195.82" height="166.74" fill="white"/>
</clipPath>
</defs>
</svg>
