<svg width="202" height="123" viewBox="0 0 202 123" fill="none" xmlns="http://www.w3.org/2000/svg">
<path d="M182.763 142.655H19.25C16.4511 142.655 13.6892 142.013 11.1752 140.778C8.6613 139.543 6.46183 137.748 4.74482 135.529C3.02782 133.311 1.83869 130.728 1.26828 127.978C0.697868 125.227 0.761252 122.383 1.45359 119.661L1.81888 118.229L17.2409 57.6432C18.2462 53.6749 20.5408 50.1562 23.7618 47.6434C26.9828 45.1306 30.9464 43.7671 35.026 43.7686H166.975C171.056 43.7686 175.02 45.1323 178.243 47.6447C181.465 50.1571 183.762 53.675 184.772 57.6432L200.194 118.206L200.559 119.661C201.249 122.382 201.311 125.226 200.739 127.976C200.168 130.725 198.979 133.307 197.262 135.525C195.546 137.743 193.347 139.538 190.834 140.774C188.322 142.01 185.561 142.653 182.763 142.655Z" fill="#2950AB" stroke="url(#paint0_linear_880_1099)" stroke-width="0.803774" stroke-miterlimit="10"/>
<path d="M25.8051 118.045H25.6452C24.0919 118.004 22.5679 117.611 21.188 116.894C19.808 116.177 18.6081 115.155 17.6784 113.906C16.7488 112.656 16.1136 111.211 15.8208 109.68C15.528 108.148 15.5851 106.57 15.9879 105.064L28.3735 56.4394C29.0488 53.7723 30.5906 51.4073 32.7552 49.7183C34.9197 48.0292 37.5835 47.1126 40.3253 47.1133H161.693C164.432 47.1139 167.094 48.0297 169.258 49.7162C171.422 51.4027 172.965 53.764 173.644 56.428L186.019 105.064C186.422 106.573 186.479 108.154 186.184 109.688C185.889 111.222 185.251 112.669 184.318 113.919C183.384 115.169 182.18 116.19 180.795 116.905C179.411 117.62 177.883 118.009 176.327 118.045H25.8051Z" fill="#1A326B"/>
<path d="M154.693 30.2959V78.5191C154.693 94.5591 130.652 107.471 101.041 107.471C71.4297 107.471 47.332 94.5133 47.332 78.5191V30.2959H154.693Z" fill="#C43971" stroke="url(#paint1_linear_880_1099)" stroke-width="0.803774" stroke-miterlimit="10"/>
<path d="M101.003 59.2472C130.653 59.2472 154.689 46.2849 154.689 30.295C154.689 14.3051 130.653 1.34277 101.003 1.34277C71.3525 1.34277 47.3164 14.3051 47.3164 30.295C47.3164 46.2849 71.3525 59.2472 101.003 59.2472Z" fill="#DD3F7D" stroke="url(#paint2_linear_880_1099)" stroke-width="0.803774" stroke-miterlimit="10"/>
<defs>
<linearGradient id="paint0_linear_880_1099" x1="0.528953" y1="93.2176" x2="201.472" y2="93.2176" gradientUnits="userSpaceOnUse">
<stop stop-color="#1A326B"/>
<stop offset="0.49" stop-color="#2950AB"/>
<stop offset="1" stop-color="#1A326B"/>
</linearGradient>
<linearGradient id="paint1_linear_880_1099" x1="101.007" y1="107.815" x2="101.007" y2="29.9522" gradientUnits="userSpaceOnUse">
<stop stop-color="#9E2E5B"/>
<stop offset="0.14" stop-color="#B63569"/>
<stop offset="0.32" stop-color="#CD3C76"/>
<stop offset="0.51" stop-color="#DE4080"/>
<stop offset="0.73" stop-color="#E84385"/>
<stop offset="1" stop-color="#EB4487"/>
</linearGradient>
<linearGradient id="paint2_linear_880_1099" x1="9498.22" y1="1.34277" x2="9498.22" y2="2962.58" gradientUnits="userSpaceOnUse">
<stop stop-color="#9E2E5B"/>
<stop offset="0.14" stop-color="#B63569"/>
<stop offset="0.32" stop-color="#CD3C76"/>
<stop offset="0.51" stop-color="#DE4080"/>
<stop offset="0.73" stop-color="#E84385"/>
<stop offset="1" stop-color="#EB4487"/>
</linearGradient>
</defs>
</svg>
