<svg viewBox="0 0 416 445" fill="none" xmlns="http://www.w3.org/2000/svg">
<mask id="mask0_1193_260" style="mask-type:alpha" maskUnits="userSpaceOnUse" x="0" y="0" width="416" height="445">
<rect width="416" height="445" rx="16" fill="#25272C"/>
</mask>
<g mask="url(#mask0_1193_260)">
<rect width="416" height="445" rx="16" fill="#25272C"/>
<path d="M34.1622 -25.1662L-8.90527 -50.0293L-51.9688 -25.1662V24.5599L-8.90527 49.4229L34.1622 24.5599V-25.1662Z" fill="#3262D1" stroke="#1A326B" stroke-width="0.69" stroke-miterlimit="10"/>
<path d="M120.67 -25.1662L77.6025 -50.0293L34.5391 -25.1662V24.5599L77.6025 49.4229L120.67 24.5599V-25.1662Z" fill="#3262D1" stroke="#1A326B" stroke-width="0.69" stroke-miterlimit="10"/>
<path d="M207.186 -25.1662L164.122 -50.0293L121.055 -25.1662V24.5599L164.122 49.4229L207.186 24.5599V-25.1662Z" fill="#3262D1" stroke="#1A326B" stroke-width="0.69" stroke-miterlimit="10"/>
<path d="M293.697 -25.1662L250.634 -50.0293L207.566 -25.1662V24.5599L250.634 49.4229L293.697 24.5599V-25.1662Z" fill="#3262D1" stroke="#1A326B" stroke-width="0.69" stroke-miterlimit="10"/>
<path d="M380.205 -25.1662L337.142 -50.0293L294.074 -25.1662V24.5599L337.142 49.4229L380.205 24.5599V-25.1662Z" fill="#3262D1" stroke="#1A326B" stroke-width="0.69" stroke-miterlimit="10"/>
<path d="M466.717 -25.1662L423.653 -50.0293L380.586 -25.1662V24.5599L423.653 49.4229L466.717 24.5599V-25.1662Z" fill="#3262D1" stroke="#1A326B" stroke-width="0.69" stroke-miterlimit="10"/>
<path d="M77.4201 49.8181L34.3526 24.9551L-8.71094 49.8181V99.5442L34.3526 124.407L77.4201 99.5442V49.8181Z" fill="#3262D1" stroke="#1A326B" stroke-width="0.69" stroke-miterlimit="10"/>
<path d="M163.928 49.8181L120.86 24.9551L77.7969 49.8181V99.5442L120.86 124.407L163.928 99.5442V49.8181Z" fill="#3262D1" stroke="#1A326B" stroke-width="0.69" stroke-miterlimit="10"/>
<path d="M250.439 49.8181L207.376 24.9551L164.309 49.8181V99.5442L207.376 124.407L250.439 99.5442V49.8181Z" fill="#3262D1" stroke="#1A326B" stroke-width="0.69" stroke-miterlimit="10"/>
<path d="M336.951 49.8181L293.888 24.9551L250.82 49.8181V99.5442L293.888 124.407L336.951 99.5442V49.8181Z" fill="#3262D1" stroke="#1A326B" stroke-width="0.69" stroke-miterlimit="10"/>
<path d="M423.459 49.8181L380.396 24.9551L337.328 49.8181V99.5442L380.396 124.407L423.459 99.5442V49.8181Z" fill="#3262D1" stroke="#1A326B" stroke-width="0.69" stroke-miterlimit="10"/>
<path d="M34.1622 124.804L-8.90527 99.9414L-51.9688 124.804V174.531L-8.90527 199.394L34.1622 174.531V124.804Z" fill="#3262D1" stroke="#1A326B" stroke-width="0.69" stroke-miterlimit="10"/>
<path d="M120.67 124.804L77.6025 99.9414L34.5391 124.804V174.531L77.6025 199.394L120.67 174.531V124.804Z" fill="#3262D1" stroke="#1A326B" stroke-width="0.69" stroke-miterlimit="10"/>
<path d="M207.186 124.804L164.122 99.9414L121.055 124.804V174.531L164.122 199.394L207.186 174.531V124.804Z" fill="#2950AB" stroke="#1A326B" stroke-width="0.69" stroke-miterlimit="10"/>
<path d="M293.697 124.804L250.634 99.9414L207.566 124.804V174.531L250.634 199.394L293.697 174.531V124.804Z" fill="#2950AB" stroke="#1A326B" stroke-width="0.69" stroke-miterlimit="10"/>
<path d="M380.205 124.804L337.142 99.9414L294.074 124.804V174.531L337.142 199.394L380.205 174.531V124.804Z" fill="#3262D1" stroke="#1A326B" stroke-width="0.69" stroke-miterlimit="10"/>
<path d="M466.717 124.804L423.653 99.9414L380.586 124.804V174.531L423.653 199.394L466.717 174.531V124.804Z" fill="#3262D1" stroke="#1A326B" stroke-width="0.69" stroke-miterlimit="10"/>
<path d="M77.4201 199.79L34.3526 174.927L-8.71094 199.79V249.516L34.3526 274.379L77.4201 249.516V199.79Z" fill="#3262D1" stroke="#1A326B" stroke-width="0.69" stroke-miterlimit="10"/>
<path d="M163.928 199.79L120.86 174.927L77.7969 199.79V249.516L120.86 274.379L163.928 249.516V199.79Z" fill="#2950AB" stroke="#1A326B" stroke-width="0.69" stroke-miterlimit="10"/>
<path d="M250.439 199.79L207.376 174.927L164.309 199.79V249.516L207.376 274.379L250.439 249.516V199.79Z" fill="#2950AB" stroke="#1A326B" stroke-width="0.69" stroke-miterlimit="10"/>
<path d="M336.951 199.79L293.888 174.927L250.82 199.79V249.516L293.888 274.379L336.951 249.516V199.79Z" fill="#2950AB" stroke="#1A326B" stroke-width="0.69" stroke-miterlimit="10"/>
<path d="M423.459 199.79L380.396 174.927L337.328 199.79V249.516L380.396 274.379L423.459 249.516V199.79Z" fill="#3262D1" stroke="#1A326B" stroke-width="0.69" stroke-miterlimit="10"/>
<path d="M34.1622 274.776L-8.90527 249.917L-51.9688 274.776V324.502L-8.90527 349.365L34.1622 324.502V274.776Z" fill="#3262D1" stroke="#1A326B" stroke-width="0.69" stroke-miterlimit="10"/>
<path d="M120.67 274.776L77.6025 249.917L34.5391 274.776V324.502L77.6025 349.365L120.67 324.502V274.776Z" fill="#3262D1" stroke="#1A326B" stroke-width="0.69" stroke-miterlimit="10"/>
<path d="M207.186 274.776L164.122 249.917L121.055 274.776V324.502L164.122 349.365L207.186 324.502V274.776Z" fill="#2950AB" stroke="#1A326B" stroke-width="0.69" stroke-miterlimit="10"/>
<path d="M293.697 274.776L250.634 249.917L207.566 274.776V324.502L250.634 349.365L293.697 324.502V274.776Z" fill="#2950AB" stroke="#1A326B" stroke-width="0.69" stroke-miterlimit="10"/>
<path d="M380.205 274.776L337.142 249.917L294.074 274.776V324.502L337.142 349.365L380.205 324.502V274.776Z" fill="#3262D1" stroke="#1A326B" stroke-width="0.69" stroke-miterlimit="10"/>
<path d="M466.717 274.776L423.653 249.917L380.586 274.776V324.502L423.653 349.365L466.717 324.502V274.776Z" fill="#3262D1" stroke="#1A326B" stroke-width="0.69" stroke-miterlimit="10"/>
<path d="M77.4201 349.764L34.3526 324.901L-8.71094 349.764V399.491L34.3526 424.354L77.4201 399.491V349.764Z" fill="#3262D1" stroke="#1A326B" stroke-width="0.69" stroke-miterlimit="10"/>
<path d="M163.928 349.764L120.86 324.901L77.7969 349.764V399.491L120.86 424.354L163.928 399.491V349.764Z" fill="#3262D1" stroke="#1A326B" stroke-width="0.69" stroke-miterlimit="10"/>
<path d="M250.439 349.764L207.376 324.901L164.309 349.764V399.491L207.376 424.354L250.439 399.491V349.764Z" fill="#3262D1" stroke="#1A326B" stroke-width="0.69" stroke-miterlimit="10"/>
<path d="M336.951 349.764L293.888 324.901L250.82 349.764V399.491L293.888 424.354L336.951 399.491V349.764Z" fill="#3262D1" stroke="#1A326B" stroke-width="0.69" stroke-miterlimit="10"/>
<path d="M423.459 349.764L380.396 324.901L337.328 349.764V399.491L380.396 424.354L423.459 399.491V349.764Z" fill="#3262D1" stroke="#1A326B" stroke-width="0.69" stroke-miterlimit="10"/>
<path d="M34.1622 424.752L-8.90527 399.889L-51.9688 424.752V474.478L-8.90527 499.341L34.1622 474.478V424.752Z" fill="#3262D1" stroke="#1A326B" stroke-width="0.69" stroke-miterlimit="10"/>
<path d="M120.67 424.752L77.6025 399.889L34.5391 424.752V474.478L77.6025 499.341L120.67 474.478V424.752Z" fill="#3262D1" stroke="#1A326B" stroke-width="0.69" stroke-miterlimit="10"/>
<path d="M207.186 424.752L164.122 399.889L121.055 424.752V474.478L164.122 499.341L207.186 474.478V424.752Z" fill="#3262D1" stroke="#1A326B" stroke-width="0.69" stroke-miterlimit="10"/>
<path d="M293.697 424.752L250.634 399.889L207.566 424.752V474.478L250.634 499.341L293.697 474.478V424.752Z" fill="#3262D1" stroke="#1A326B" stroke-width="0.69" stroke-miterlimit="10"/>
<path d="M380.205 424.752L337.142 399.889L294.074 424.752V474.478L337.142 499.341L380.205 474.478V424.752Z" fill="#3262D1" stroke="#1A326B" stroke-width="0.69" stroke-miterlimit="10"/>
<path d="M466.717 424.752L423.653 399.889L380.586 424.752V474.478L423.653 499.341L466.717 474.478V424.752Z" fill="#3262D1" stroke="#1A326B" stroke-width="0.69" stroke-miterlimit="10"/>
</g>
</svg>
