<svg width="20" height="19" viewBox="0 0 20 19" fill="none" xmlns="http://www.w3.org/2000/svg">
<path d="M1.51613 8.66514L3.99142 2.70381L5.66899 4.38132L6.09246 4.80477L6.66566 4.63135C7.69431 4.32014 8.81884 4.14775 10 4.14775C11.183 4.14775 12.3091 4.32067 13.339 4.63277L13.9125 4.80654L14.3361 4.38285L16.0239 2.69513L18.7533 9.34976C18.9149 9.85615 19 10.3834 19 10.9255C19 14.4495 15.219 17.7033 10 17.7033C4.78099 17.7033 1 14.4495 1 10.9255C1 10.3786 1.08661 9.84688 1.25097 9.33643L1.32469 9.12292C1.37688 8.98141 1.43518 8.84139 1.49946 8.70305L1.50819 8.68427L1.51613 8.66514Z" stroke="#FAFAFA" stroke-width="2"/>
</svg>
