<svg width="40" height="40" viewBox="0 0 40 40" fill="none" xmlns="http://www.w3.org/2000/svg">
<path d="M23.2258 3.22581C23.2258 1.45161 21.7742 0 20 0C18.1452 0 16.7742 1.45161 16.7742 3.22581C16.7742 5.08065 18.1452 6.45161 20 6.45161C21.7742 6.45161 23.2258 5.08065 23.2258 3.22581ZM20 33.5484C18.1452 33.5484 16.7742 35 16.7742 36.7742C16.7742 38.629 18.1452 40 20 40C21.7742 40 23.2258 38.629 23.2258 36.7742C23.2258 35 21.7742 33.5484 20 33.5484ZM40 20C40 18.2258 38.5484 16.7742 36.7742 16.7742C34.9194 16.7742 33.5484 18.2258 33.5484 20C33.5484 21.8548 34.9194 23.2258 36.7742 23.2258C38.5484 23.2258 40 21.8548 40 20ZM6.45161 20C6.45161 18.2258 5 16.7742 3.22581 16.7742C1.37097 16.7742 0 18.2258 0 20C0 21.8548 1.37097 23.2258 3.22581 23.2258C5 23.2258 6.45161 21.8548 6.45161 20ZM8.06452 4.91935C6.29032 4.91935 4.83871 6.37097 4.83871 8.14516C4.83871 10 6.29032 11.371 8.06452 11.371C9.91935 11.371 11.2903 10 11.2903 8.14516C11.2903 6.37097 9.91935 4.91935 8.06452 4.91935ZM31.8548 28.7097C30 28.7097 28.629 30.0806 28.629 31.9355C28.629 33.7097 30 35.1613 31.8548 35.1613C33.629 35.1613 35.0806 33.7097 35.0806 31.9355C35.0806 30.0806 33.629 28.7097 31.8548 28.7097ZM8.06452 28.7097C6.29032 28.7097 4.83871 30.0806 4.83871 31.9355C4.83871 33.7097 6.29032 35.1613 8.06452 35.1613C9.91935 35.1613 11.2903 33.7097 11.2903 31.9355C11.2903 30.0806 9.91935 28.7097 8.06452 28.7097Z" fill="#2CC995"/>
</svg>
