<svg width="14" height="14" viewBox="0 0 14 14" fill="none" xmlns="http://www.w3.org/2000/svg">
<path d="M13.9067 0.722984C13.7884 0.438047 13.562 0.211618 13.277 0.0932882C13.1368 0.0335359 12.9863 0.00184243 12.8339 0H1.17286C0.863595 0 0.566992 0.122857 0.348305 0.341544C0.129619 0.560231 0.00676146 0.856833 0.00676146 1.1661C0.00676146 1.47537 0.129619 1.77198 0.348305 1.99066C0.566992 2.20935 0.863595 2.33221 1.17286 2.33221H10.0236L0.344931 11.9992C0.235634 12.1076 0.148883 12.2366 0.0896817 12.3787C0.0304802 12.5208 0 12.6732 0 12.8271C0 12.9811 0.0304802 13.1335 0.0896817 13.2756C0.148883 13.4177 0.235634 13.5467 0.344931 13.6551C0.453336 13.7644 0.582308 13.8511 0.724408 13.9103C0.866509 13.9695 1.01893 14 1.17286 14C1.3268 14 1.47922 13.9695 1.62132 13.9103C1.76342 13.8511 1.89239 13.7644 2.0008 13.6551L11.6678 3.97641V12.8271C11.6678 13.1364 11.7907 13.433 12.0093 13.6517C12.228 13.8704 12.5246 13.9932 12.8339 13.9932C13.1432 13.9932 13.4398 13.8704 13.6585 13.6517C13.8771 13.433 14 13.1364 14 12.8271V1.1661C13.9982 1.01372 13.9665 0.863176 13.9067 0.722984Z" fill="#FAFAFA"/>
</svg>
